<?xml version="1.0" encoding="UTF-8" standalone="no"?>
<svg
   viewBox="0 0 316.55 551.35"
   version="1.1"
   id="svg57"
   sodipodi:docname="celestial.svg"
   inkscape:export-filename="celestial.png"
   inkscape:export-xdpi="174.11809"
   inkscape:export-ydpi="174.11809"
   inkscape:version="1.2.1 (9c6d41e410, 2022-07-14, custom)"
   xmlns:inkscape="http://www.inkscape.org/namespaces/inkscape"
   xmlns:sodipodi="http://sodipodi.sourceforge.net/DTD/sodipodi-0.dtd"
   xmlns="http://www.w3.org/2000/svg"
   xmlns:svg="http://www.w3.org/2000/svg">
  <sodipodi:namedview
     id="namedview59"
     pagecolor="#ffffff"
     bordercolor="#000000"
     borderopacity="0.25"
     inkscape:showpageshadow="2"
     inkscape:pageopacity="0.0"
     inkscape:pagecheckerboard="0"
     inkscape:deskcolor="#d1d1d1"
     showgrid="false"
     inkscape:zoom="0.95220826"
     inkscape:cx="158.57875"
     inkscape:cy="276.20008"
     inkscape:window-width="1366"
     inkscape:window-height="695"
     inkscape:window-x="0"
     inkscape:window-y="0"
     inkscape:window-maximized="1"
     inkscape:current-layer="svg57" />
  <defs
     id="defs4">
    <style
       id="style2">.cls-1{fill:#48084c;}.cls-1,.cls-2{stroke:#43266b;stroke-miterlimit:10;stroke-width:8px;}.cls-2{fill:none;}.cls-3{fill:#43266b;}</style>
  </defs>
  <g
     id="Layer_1"
     data-name="Layer 1">
    <line
       class="cls-1"
       x1="312.62"
       y1="21.74"
       x2="79.82"
       y2="172.32"
       id="line6" />
    <line
       class="cls-2"
       x1="127.42"
       y1="4"
       x2="312.62"
       y2="21.74"
       id="line8" />
    <line
       class="cls-2"
       x1="10.15"
       y1="66.74"
       x2="127.42"
       y2="4"
       id="line10" />
    <line
       class="cls-2"
       x1="79.82"
       y1="172.32"
       x2="127.42"
       y2="4"
       id="line12" />
    <line
       class="cls-2"
       x1="10.15"
       y1="66.74"
       x2="79.82"
       y2="172.32"
       id="line14" />
    <line
       class="cls-2"
       x1="312.62"
       y1="21.74"
       x2="215.26"
       y2="547.49"
       id="line16" />
    <line
       class="cls-2"
       x1="10.15"
       y1="66.74"
       x2="4.09"
       y2="351.9"
       id="line18" />
    <line
       class="cls-2"
       x1="215.26"
       y1="547.49"
       x2="4.09"
       y2="351.9"
       id="line20" />
    <line
       class="cls-2"
       x1="79.82"
       y1="172.32"
       x2="4.09"
       y2="351.9"
       id="line22" />
    <line
       class="cls-2"
       x1="312.62"
       y1="21.74"
       x2="206.61"
       y2="284.62"
       id="line24" />
    <line
       class="cls-2"
       x1="79.82"
       y1="172.32"
       x2="206.61"
       y2="284.62"
       id="line26" />
    <line
       class="cls-2"
       x1="215.26"
       y1="547.49"
       x2="206.61"
       y2="284.62"
       id="line28" />
    <line
       class="cls-2"
       x1="4.09"
       y1="351.9"
       x2="206.61"
       y2="284.62"
       id="line30" />
    <line
       class="cls-2"
       x1="215.26"
       y1="547.49"
       x2="167.66"
       y2="399.5"
       id="line32" />
    <line
       class="cls-2"
       x1="4.09"
       y1="351.9"
       x2="167.66"
       y2="399.5"
       id="line34" />
    <line
       class="cls-2"
       x1="206.61"
       y1="284.62"
       x2="167.66"
       y2="399.5"
       id="line36" />
    <path
       class="cls-3"
       d="M454.71,58.06c5.79,0,5.8-9,0-9s-5.8,9,0,9Z"
       transform="translate(-142.5 -31.38)"
       id="path38" />
    <path
       class="cls-3"
       d="M269.78,37.38c3.86,0,3.87-6,0-6s-3.87,6,0,6Z"
       transform="translate(-142.5 -31.38)"
       id="path40" />
    <path
       class="cls-3"
       d="M153.55,99.34a.6.6,0,0,0,0-1.2.6.6,0,0,0,0,1.2Z"
       transform="translate(-142.5 -31.38)"
       id="path42" />
    <path
       class="cls-3"
       d="M153.55,99.23a.6.6,0,0,0,0-1.2.6.6,0,0,0,0,1.2Z"
       transform="translate(-142.5 -31.38)"
       id="path44" />
    <path
       class="cls-3"
       d="M153.44,99.23a.6.6,0,0,0,0-1.2.6.6,0,0,0,0,1.2Z"
       transform="translate(-142.5 -31.38)"
       id="path46" />
    <path
       class="cls-3"
       d="M151.56,100.58c3.86,0,3.87-6,0-6s-3.87,6,0,6Z"
       transform="translate(-142.5 -31.38)"
       id="path48" />
    <path
       class="cls-3"
       d="M145.4,386.68c3.86,0,3.87-6,0-6s-3.87,6,0,6Z"
       transform="translate(-142.5 -31.38)"
       id="path50" />
    <path
       class="cls-3"
       d="M357.24,577.85a.6.6,0,0,0,0-1.2.6.6,0,0,0,0,1.2Z"
       transform="translate(-142.5 -31.38)"
       id="path52" />
    <path
       class="cls-3"
       d="M357.69,582.73c5.8,0,5.8-9,0-9s-5.8,9,0,9Z"
       transform="translate(-142.5 -31.38)"
       id="path54" />
  </g>
</svg>
