<?xml version="1.0" encoding="UTF-8" standalone="no"?>
<!-- Created with Inkscape (http://www.inkscape.org/) -->

<svg
   xmlns:dc="http://purl.org/dc/elements/1.1/"
   xmlns:cc="http://creativecommons.org/ns#"
   xmlns:rdf="http://www.w3.org/1999/02/22-rdf-syntax-ns#"
   xmlns:svg="http://www.w3.org/2000/svg"
   xmlns="http://www.w3.org/2000/svg"
   xmlns:xlink="http://www.w3.org/1999/xlink"
   xmlns:sodipodi="http://sodipodi.sourceforge.net/DTD/sodipodi-0.dtd"
   xmlns:inkscape="http://www.inkscape.org/namespaces/inkscape"
   width="31.026426mm"
   height="28.25119mm"
   viewBox="0 0 109.93615 100.10264"
   id="svg2"
   version="1.1"
   inkscape:version="0.91 r13725"
   sodipodi:docname="Frosch-lineart.svg">
  <title
     id="title4136">frog - lineart</title>
  <defs
     id="defs4">
    <pattern
       inkscape:collect="always"
       xlink:href="#Strips2_1"
       id="pattern6345"
       patternTransform="matrix(-0.11125535,0.74170228,-2.3487238,-0.35230859,5.6568542,939.0378)" />
    <pattern
       inkscape:stockid="Stripes 2:1"
       id="Strips2_1"
       patternTransform="translate(0,0) scale(10,10)"
       height="1"
       width="1.5"
       patternUnits="userSpaceOnUse"
       inkscape:collect="always">
      <rect
         id="rect5342"
         height="2"
         width="1"
         y="-0.5"
         x="0"
         style="fill:black;stroke:none" />
    </pattern>
    <pattern
       inkscape:collect="always"
       xlink:href="#Polkadots-large"
       id="pattern6251"
       patternTransform="matrix(0.48941378,0,0,0.48941378,-2,938)" />
    <pattern
       inkscape:collect="always"
       xlink:href="#Polkadots-large"
       id="pattern6131"
       patternTransform="matrix(0.67034269,0,0,0.74534269,2,934)" />
    <pattern
       inkscape:collect="always"
       xlink:href="#Polkadots-large"
       id="pattern6039"
       patternTransform="matrix(1.1863961,0,0,1.2299621,2,946)" />
    <pattern
       inkscape:stockid="Polka dots, large"
       id="Polkadots-large"
       patternTransform="translate(0,0) scale(10,10)"
       height="10"
       width="10"
       patternUnits="userSpaceOnUse"
       inkscape:collect="always">
      <circle
         id="circle5729"
         r="0.45"
         cy="0.810"
         cx="2.567"
         style="fill:black;stroke:none" />
      <circle
         id="circle5731"
         r="0.45"
         cy="2.33"
         cx="3.048"
         style="fill:black;stroke:none" />
      <circle
         id="circle5733"
         r="0.45"
         cy="2.415"
         cx="4.418"
         style="fill:black;stroke:none" />
      <circle
         id="circle5735"
         r="0.45"
         cy="3.029"
         cx="1.844"
         style="fill:black;stroke:none" />
      <circle
         id="circle5737"
         r="0.45"
         cy="1.363"
         cx="6.08"
         style="fill:black;stroke:none" />
      <circle
         id="circle5739"
         r="0.45"
         cy="4.413"
         cx="5.819"
         style="fill:black;stroke:none" />
      <circle
         id="circle5741"
         r="0.45"
         cy="4.048"
         cx="4.305"
         style="fill:black;stroke:none" />
      <circle
         id="circle5743"
         r="0.45"
         cy="3.045"
         cx="5.541"
         style="fill:black;stroke:none" />
      <circle
         id="circle5745"
         r="0.45"
         cy="5.527"
         cx="4.785"
         style="fill:black;stroke:none" />
      <circle
         id="circle5747"
         r="0.45"
         cy="5.184"
         cx="2.667"
         style="fill:black;stroke:none" />
      <circle
         id="circle5749"
         r="0.45"
         cy="1.448"
         cx="7.965"
         style="fill:black;stroke:none" />
      <circle
         id="circle5751"
         r="0.45"
         cy="5.049"
         cx="7.047"
         style="fill:black;stroke:none" />
      <circle
         id="circle5753"
         r="0.45"
         cy="0.895"
         cx="4.340"
         style="fill:black;stroke:none" />
      <circle
         id="circle5755"
         r="0.45"
         cy="0.340"
         cx="7.125"
         style="fill:black;stroke:none" />
      <circle
         id="circle5757"
         r="0.45"
         cy="1.049"
         cx="9.553"
         style="fill:black;stroke:none" />
      <circle
         id="circle5759"
         r="0.45"
         cy="2.689"
         cx="7.006"
         style="fill:black;stroke:none" />
      <circle
         id="circle5761"
         r="0.45"
         cy="2.689"
         cx="8.909"
         style="fill:black;stroke:none" />
      <circle
         id="circle5763"
         r="0.45"
         cy="4.407"
         cx="9.315"
         style="fill:black;stroke:none" />
      <circle
         id="circle5765"
         r="0.45"
         cy="3.870"
         cx="7.820"
         style="fill:black;stroke:none" />
      <circle
         id="circle5767"
         r="0.45"
         cy="5.948"
         cx="8.270"
         style="fill:black;stroke:none" />
      <circle
         id="circle5769"
         r="0.45"
         cy="7.428"
         cx="7.973"
         style="fill:black;stroke:none" />
      <circle
         id="circle5771"
         r="0.45"
         cy="8.072"
         cx="9.342"
         style="fill:black;stroke:none" />
      <circle
         id="circle5773"
         r="0.45"
         cy="9.315"
         cx="8.206"
         style="fill:black;stroke:none" />
      <circle
         id="circle5775"
         r="0.45"
         cy="9.475"
         cx="9.682"
         style="fill:black;stroke:none" />
      <circle
         id="circle5777"
         r="0.45"
         cy="6.186"
         cx="9.688"
         style="fill:black;stroke:none" />
      <circle
         id="circle5779"
         r="0.45"
         cy="6.296"
         cx="3.379"
         style="fill:black;stroke:none" />
      <circle
         id="circle5781"
         r="0.45"
         cy="8.204"
         cx="2.871"
         style="fill:black;stroke:none" />
      <circle
         id="circle5783"
         r="0.45"
         cy="8.719"
         cx="4.59"
         style="fill:black;stroke:none" />
      <circle
         id="circle5785"
         r="0.45"
         cy="9.671"
         cx="3.181"
         style="fill:black;stroke:none" />
      <circle
         id="circle5787"
         r="0.45"
         cy="7.315"
         cx="5.734"
         style="fill:black;stroke:none" />
      <circle
         id="circle5789"
         r="0.45"
         cy="6.513"
         cx="6.707"
         style="fill:black;stroke:none" />
      <circle
         id="circle5791"
         r="0.45"
         cy="9.670"
         cx="5.730"
         style="fill:black;stroke:none" />
      <circle
         id="circle5793"
         r="0.45"
         cy="8.373"
         cx="6.535"
         style="fill:black;stroke:none" />
      <circle
         id="circle5795"
         r="0.45"
         cy="7.154"
         cx="4.37"
         style="fill:black;stroke:none" />
      <circle
         id="circle5797"
         r="0.45"
         cy="7.25"
         cx="0.622"
         style="fill:black;stroke:none" />
      <circle
         id="circle5799"
         r="0.45"
         cy="5.679"
         cx="0.831"
         style="fill:black;stroke:none" />
      <circle
         id="circle5801"
         r="0.45"
         cy="8.519"
         cx="1.257"
         style="fill:black;stroke:none" />
      <circle
         id="circle5803"
         r="0.45"
         cy="6.877"
         cx="1.989"
         style="fill:black;stroke:none" />
      <circle
         id="circle5805"
         r="0.45"
         cy="3.181"
         cx="0.374"
         style="fill:black;stroke:none" />
      <circle
         id="circle5807"
         r="0.45"
         cy="1.664"
         cx="1.166"
         style="fill:black;stroke:none" />
      <circle
         id="circle5809"
         r="0.45"
         cy="0.093"
         cx="1.151"
         style="fill:black;stroke:none" />
      <circle
         id="circle5811"
         r="0.45"
         cy="10.093"
         cx="1.151"
         style="fill:black;stroke:none" />
      <circle
         id="circle5813"
         r="0.45"
         cy="4.451"
         cx="1.302"
         style="fill:black;stroke:none" />
      <circle
         id="circle5815"
         r="0.45"
         cy="3.763"
         cx="3.047"
         style="fill:black;stroke:none" />
    </pattern>
  </defs>
  <sodipodi:namedview
     id="base"
     pagecolor="#ffffff"
     bordercolor="#666666"
     borderopacity="1.0"
     inkscape:pageopacity="0.0"
     inkscape:pageshadow="2"
     inkscape:zoom="1"
     inkscape:cx="-124.69861"
     inkscape:cy="-34.76476"
     inkscape:document-units="mm"
     inkscape:current-layer="layer1"
     showgrid="false"
     inkscape:window-width="2560"
     inkscape:window-height="1420"
     inkscape:window-x="-2"
     inkscape:window-y="-3"
     inkscape:window-maximized="1"
     inkscape:snap-global="false"
     fit-margin-top="1"
     fit-margin-right="1"
     fit-margin-bottom="1"
     fit-margin-left="1" />
  <metadata
     id="metadata7">
    <rdf:RDF>
      <cc:Work
         rdf:about="">
        <dc:format>image/svg+xml</dc:format>
        <dc:type
           rdf:resource="http://purl.org/dc/dcmitype/StillImage" />
        <dc:title>frog - lineart</dc:title>
        <cc:license
           rdf:resource="http://creativecommons.org/publicdomain/zero/1.0/" />
        <dc:date>2015-02-22</dc:date>
        <dc:creator>
          <cc:Agent>
            <dc:title>Frank Tremmel</dc:title>
          </cc:Agent>
        </dc:creator>
        <dc:subject>
          <rdf:Bag>
            <rdf:li>frog</rdf:li>
            <rdf:li>amphibian</rdf:li>
            <rdf:li>animal</rdf:li>
            <rdf:li>frosch</rdf:li>
            <rdf:li>amphibie</rdf:li>
            <rdf:li>tier</rdf:li>
            <rdf:li>line art</rdf:li>
            <rdf:li>outline</rdf:li>
            <rdf:li />
          </rdf:Bag>
        </dc:subject>
        <dc:description>line art frog</dc:description>
      </cc:Work>
      <cc:License
         rdf:about="http://creativecommons.org/publicdomain/zero/1.0/">
        <cc:permits
           rdf:resource="http://creativecommons.org/ns#Reproduction" />
        <cc:permits
           rdf:resource="http://creativecommons.org/ns#Distribution" />
        <cc:permits
           rdf:resource="http://creativecommons.org/ns#DerivativeWorks" />
      </cc:License>
    </rdf:RDF>
  </metadata>
  <g
     inkscape:label="Ebene 1"
     inkscape:groupmode="layer"
     id="layer1"
     transform="translate(0.20345724,-952.65667)">
    <path
       style="fill:#ffffff;fill-opacity:1;fill-rule:evenodd;stroke:#88aa00;stroke-width:0.35433072;stroke-linecap:butt;stroke-linejoin:miter;stroke-miterlimit:4;stroke-dasharray:none;stroke-opacity:1"
       d="m 25.733503,956.85572 c -0.58527,0.01 -2.65974,0.2605 -3.19922,0.371 -1.56929,0.3202 -1.99101,1.1054 -3.05469,2.3028 -0.82259,0.926 -1.4375,3.6074 -1.4375,3.6074 0,0 -4.73849,0.2965 -6.69531,0.8926 -2.7761299,0.8455 -4.8553499,1.6974 -6.3339799,3.7832 -0.72617,1.0244 -1.23871,1.9512 -0.98829,3.1816 0.39883,1.9595 1.75602,3.7995 3.95118,4.7598 0.5901,1.2066 1.18504,3.6303 3.5214799,4.4004 1.628257,1.62238 3.413565,2.14542 5.20508,2.625 2.27235,4.7939 5.57338,10.8508 10.99414,13.789 0.01837,0.02 0.04937,0.046 0.06836,0.067 -0.62963,2.1258 -1.00503,4.14638 -0.70508,5.96478 -2.757829,0.5851 -3.312883,1.6369 -2.39258,3.7246 -4.164316,-0.053 -3.945087,0.2644 -4.57031,1.9902 -3.59722,1.0269 -6.920464,2.1506 -8.38477,2.4551 0,0 -1.63391,-1.0359 -3.0624999,-0.8574 -1.42857,0.1786 -2.75629,1.1739 -2.72265,2.4473 0.0362,1.3699 2.21216,2.841 3.58008,2.7597 1.2632599,-0.075 2.5449199,-2.5 2.5449199,-2.5 3.35649,0.01 7.43487,-0.8532 11.09765,-1.75 -1.850385,1.5936 -3.609205,2.821 -5.29296,3.7481 -1.05289,0.5137 -1.89628,0.7137 -3.58008,2.1738 0,0 -3.09439,0.8522 -3.82422,1.8809 -0.44776,0.6311 -0.5948999,1.8274 0,2.3222 1.25657,1.0452 3.95376,1.1675 5.20117,0.1114 0.5317,-0.4502 1.0918,-2.0899 1.0918,-2.0899 l 3.98242,-1.8398 c 2.10168,-1.4509 4.83191,-4.1788 7.14258,-6.3828 0.20078,1.2597 0.08913,3.5195 0.94726,4.6269 0.20699,0.9326 1.92608,1.0285 2.80469,2.2969 l -0.4707,2.4219 c 0.81271,1.9095 3.2369,2.593 3.91406,1.6992 0,0 2.15274,-1.8737 2.07813,-2.8106 -0.0893,-1.1217 -2.81446,-2.6465 -2.81446,-2.6465 l -1.58593,-2.457 c -0.10241,-0.8333 -0.72268,-1.7311 0.45898,-2.5644 1.41671,1.6546 2.83351,2.6882 4.5625,3.0937 l 3.80273,0.3399 2.36133,1.8808 c 1.10433,0.3326 2.62926,-0.5378 2.99024,-2.7012 0.26512,-1.589 0.29012,-3.1161 -1.08399,-3 -0.8433,0.071 -2.18207,0.5206 -2.70312,0.9141 -1.44983,-0.7155 -2.70346,-2.0199 -4.45508,-1.8301 -1.75554,-2.2596 -1.70026,-3.4897 -0.91797,-5.9551 0.06131,0.089 1.72989,2.4905 3.05078,3.4981 1.86446,1.4222 4.45622,1.5908 6.42969,2.8574 1.1357,0.7289 3.03515,2.6797 3.03515,2.6797 -1.39253,2.8263 -2.79399,7.0608 -3.62304,11.0742 -1.26201,0.6799 -1.99982,-0.666 -4.16406,-1.4844 0.45555,-1.1303 -1.51654,-2.2368 -2.23047,-2.1074 -1.30583,0.2367 -3.77241,2.2476 -1.79493,3.4004 l 1.84766,1.8047 c 0,0 -3.60637,-0.3059 -6.28516,-0.2949 -1.66702,0.01 -5.3789,-0.8399 -5.3789,-0.8399 -0.76047,-1.4997 -1.3174,-1.0434 -1.91211,-1.1738 -1.53166,-0.3359 -2.23159,0.9581 -2.53125,1.9414 0.01126,1.2053 0.14117,2.029 0.99219,2.5625 1.37436,0.2661 2.64117,0.422 3.17773,0.018 2.71161,0.3149 4.41555,0.7082 6.95508,1.4297 l 3.6543,0.416 c -3.24875,0.9222 -4.896,1.0092 -7.82618,2.0625 -0.34687,-0.7838 -1.4979,-1.0704 -2.50586,-1.1934 -2.56394,0.2061 -3.01167,1.5344 -3.19726,2.7403 0.02651,2.2631 2.93259,3.3464 3.92969,2.6621 1.10417,-0.7115 1.9963,-1.0237 2.5957,-1.2305 0,0 3.76125,-0.2645 5.46289,-0.3555 1.42652,-0.076 2.7378,-0.5446 4.1582,-0.6972 1.39301,-0.1496 2.51979,0.083 3.91797,-0.01 1.37143,-0.087 3.8747,0.6183 5.24219,0.4824 2.5304,-0.2513 4.58986,-1.3533 6.375,-2.707 1.54854,-1.1743 3.53393,-3.5665 4.44141,-5.2851 1.44317,-2.733 1.99804,-8.545 1.99804,-8.545 2.53732,0.4532 4.5369,0.4385 7.73633,-2.0761 0,0 -0.5642,3.3146 -0.25,4.83 0.56785,2.7387 1.17806,4.8287 3.40234,6.92 0.59691,0.1162 1.66076,0.4799 2.19336,0.8554 -0.64518,0.5879 -0.84804,0.6943 -1.64062,1.1524 -1.08946,0.49 -2.05567,1.0402 -3.07813,1.3554 -1.01191,-1.4181 -2.51682,-0.2623 -3.29101,0.3985 -1.22582,1.0463 -0.43427,2.2792 -0.07227,2.6035 0.7646,0.6855 2.51474,0.4208 3.0586,-0.031 l 1.67773,-1.3964 c 0.45337,0.6853 0.4905,1.4801 0.06641,2.3847 -1.56238,1.2667 -3.21729,1.3589 -5.05664,2.3477 -1.13096,0.3579 -1.69913,0.8938 -2.83008,1.5625 -0.70046,-0.014 -2.8425,-0.8891 -3.54297,-0.2949 -0.83069,0.5027 -1.22091,1.5562 -0.71094,2.2265 1.05855,0.9817 1.55004,1.0085 2.44922,1.1934 -2.04586,0.5591 -2.7142,0.6191 -3.44531,2 -0.61284,-0.3991 -1.66699,-1.1688 -2.9375,-0.9102 -1.9907,0.8487 -3.27023,2.7176 -3,3.418 1.25,1.4543 2.8125,2.0625 4.0625,2.0625 2.19711,-0.4177 3.00244,-1.0998 3.59765,-1.8379 3.39131,-0.6579 4.62246,-1.6076 7.53321,-3.2266 1.07446,-0.3072 2.80123,-2.1431 3.33008,-2.9316 0.67477,0.7041 1.01262,0.9899 2.13671,1.0449 -0.64981,0.368 -1.43841,0.677 -1.92578,1.0449 -1.09265,1.2718 -0.75018,2.3237 -0.47656,2.9883 1.0792,1.057 3.63551,1.3903 4.57227,0.4278 l 1.125,-2.3223 c 0.98334,-0.8834 2.127,-1.1152 3.41015,-3.3477 0,0 3.50869,-1.2387 5.160158,-2.5898 3.2635,-2.6699 6.29855,-5.6232 8.95898,-8.8945 2.20084,-2.7062 4.854909,-6.3869 6.376959,-9.5254 1.3987,-2.8842 2.48784,-6.2653 2.75195,-9.4082 0.10741,-1.2781 1.15249,-3.2354 -0.26367,-5.2578 -2.41203,-3.4445 -4.58417,-3.1902 -5.583989,-3.0782 -2.02002,0.2262 -3.94212,0.9361 -5.60156,1.9102 l 0.51758,-2.0274 c 0.6161,-1.41158 1.08446,-2.24538 -0.17969,-3.95108 -0.30598,-0.4129 -1.45198,-1.7536 -2.42578,-3.0274 0.3509,-0.5043 0.92206,-1.9825 1.27539,-2.6699 1.02103,-1.9864 1.48553,-5.0999 -0.20117,-6.6601 -1.680274,-2.32206 -7.505009,-3.12096 -8.339838,-2.7305 -0.39069,-0.4058 -2.09955,0.6103 -2.47266,0.25 -3.1957,-3.0858 -6.58748,-6.5882 -10.65039,-8.3848 -3.01141,-1.3316 -7.472,-2.6262 -10.70508,-3.25 -3.6128,-0.697 -7.6299,-0.5225 -11.25977,-1.9277 -3.63744,-1.408 -7.13102,-3.0373 -10.74023,-4.5449 -2.63763,-1.1014 -3.33872,-0.6484 -5.24219,-0.9454 0,0 -2.01301,-3.721 -3.40234,-4.8125 -1.579389,-0.92575 -2.351413,-1.88077 -3.90625,-1.8718 z"
       id="path4171-6-0"
       inkscape:connector-curvature="0"
       sodipodi:nodetypes="ccscccsccccccccccsccccccccccccccccccccccccccccscccccccccccccccccccccccscccsccccsccccccccccccccccccccccssssscccccscccscccccc" />
    <path
       style="fill:url(#pattern6131);fill-opacity:1;fill-rule:evenodd;stroke:none;stroke-width:0.35433072;stroke-linecap:butt;stroke-linejoin:miter;stroke-miterlimit:4;stroke-dasharray:none;stroke-opacity:1"
       d="m 93.504033,1003.3744 0.51758,-2.0274 c 0.6161,-1.4116 1.08446,-2.2454 -0.17969,-3.9511 -0.30598,-0.4129 -1.45198,-1.7536 -2.42578,-3.0274 0.3509,-0.5043 0.92206,-1.9825 1.27539,-2.6699 1.02103,-1.9864 1.48553,-5.0999 -0.20117,-6.6601 -1.68027,-2.32206 -7.239844,-2.67902 -8.339838,-2.7305 -1.009408,0.21292 -2.09955,0.6103 -2.47266,0.25 -3.1957,-3.0858 -6.58748,-6.5882 -10.65039,-8.3848 -3.01141,-1.3316 -7.472,-2.6262 -10.70508,-3.25 -3.6128,-0.697 -7.6299,-0.5225 -11.25977,-1.9277 -3.63744,-1.408 -7.13102,-3.0373 -10.74023,-4.5449 -2.63763,-1.1014 -3.33872,-0.6484 -5.24219,-0.9454 0,0 -2.01301,-3.721 -3.40234,-4.8125 -1.579389,-0.92575 -2.351413,-1.88077 -3.90625,-1.8718 l 0,0.004 c -0.58527,0.01 -2.65974,0.2605 -3.19922,0.371 -1.56929,0.3202 -1.99101,1.1054 -3.05469,2.3028 -0.82259,0.926 -1.4375,3.6074 -1.4375,3.6074 0,0 -7.495059,0.47468 -10.5671954,2.37035 -1.7818106,1.09947 -3.5944777,2.83436 -3.7274757,4.92386 -0.1059365,1.66434 1.1808935,3.04392 2.4016504,4.18014 0.8296861,0.77223 1.9288024,1.23591 3.0052039,1.59099 0.9338698,0.30806 1.9951558,0.34908 2.9168158,0.69195 1.762104,0.65552 2.978843,2.19321 4.77297,2.7552 2.151884,0.67405 5.366198,1.50971 5.687185,1.65793 1.353553,0.625 4.547057,2.30228 6.598796,3.20343 1.547982,0.67989 4.684582,1.94454 4.684582,1.94454 3.740302,2.62955 17.45105,4.64411 21.458316,5.88909 5.541256,1.72157 8.21137,3.44313 12.317055,5.1647 2.830336,1.20896 4.845992,3.07822 6.006835,4.75202 0.951196,1.3715 1.020408,2.8403 3.092109,3.1729 -0.235437,0.02 3.903024,-4.0332 8.410534,-4.2071 0.820164,-0.032 2.270678,0.2933 2.985597,0.6964 1.182671,0.6669 3.218592,2.4963 3.218592,2.4963 0.565288,-0.5194 1.418656,-0.7 2.162258,-1.0144 z"
       id="path4171-6-0-6"
       inkscape:connector-curvature="0"
       sodipodi:nodetypes="ccccscccsccccccccscsssssssscscscsscc" />
    <path
       style="fill:url(#pattern6039);fill-opacity:1;fill-rule:evenodd;stroke:#0000d4;stroke-width:0.35433072;stroke-linecap:butt;stroke-linejoin:miter;stroke-miterlimit:4;stroke-dasharray:none;stroke-opacity:1"
       d="m 27.772118,996.67504 c 0.01837,0.02 0.04937,0.046 0.06836,0.067 -0.62963,2.1258 -1.00503,4.14636 -0.70508,5.96476 -2.757829,0.5851 -3.312883,1.6369 -2.39258,3.7246 -4.164316,-0.053 -3.945087,0.2644 -4.57031,1.9902 -3.59722,1.0269 -6.920464,2.1506 -8.38477,2.4551 0,0 -1.63391,-1.0359 -3.0625001,-0.8574 -1.42857,0.1786 -2.75629,1.1739 -2.72265,2.4473 0.0362,1.3699 2.21216,2.841 3.58008,2.7597 1.2632601,-0.075 2.5449201,-2.5 2.5449201,-2.5 3.35649,0.01 7.43487,-0.8532 11.09765,-1.75 -1.850385,1.5936 -3.609205,2.821 -5.29296,3.7481 -1.05289,0.5137 -1.89628,0.7137 -3.58008,2.1738 0,0 -3.09439,0.8522 -3.82422,1.8809 -0.44776,0.6311 -0.5949001,1.8274 0,2.3222 1.25657,1.0452 3.95376,1.1675 5.20117,0.1114 0.5317,-0.4502 1.0918,-2.0899 1.0918,-2.0899 l 3.98242,-1.8398 c 2.10168,-1.4509 4.83191,-4.1788 7.14258,-6.3828 0.20078,1.2597 0.08913,3.5195 0.94726,4.6269 0.20699,0.9326 1.92608,1.0285 2.80469,2.2969 l -0.4707,2.4219 c 0.81271,1.9095 3.2369,2.593 3.91406,1.6992 0,0 2.15274,-1.8737 2.07813,-2.8106 -0.0893,-1.1217 -2.81446,-2.6465 -2.81446,-2.6465 l -1.58593,-2.457 c -0.10241,-0.8333 -0.72268,-1.7311 0.45898,-2.5644 1.41671,1.6546 2.83351,2.6882 4.5625,3.0937 l 3.802732,0.3399 2.36133,1.8808 c 1.10433,0.3326 2.62926,-0.5378 2.99024,-2.7012 0.26512,-1.589 0.29012,-3.1161 -1.08399,-3 -0.8433,0.071 -2.18207,0.5206 -2.70312,0.9141 -1.44983,-0.7155 -2.70346,-2.0199 -4.45508,-1.8301 -1.755542,-2.2596 -1.700262,-3.4897 -0.917972,-5.9551 -4.909923,-1.6815 -7.615188,-4.53878 -10.0625,-7.53366 z m 63.681602,-2.1689 c 0.3509,-0.5043 0.92206,-1.9825 1.27539,-2.6699 1.02103,-1.9864 1.48553,-5.0999 -0.20117,-6.6601 -1.68028,-2.32206 -7.50501,-3.12096 -8.33984,-2.7305 -0.39069,-0.4058 -2.09955,0.6103 -2.47266,0.25 z"
       id="path4171-6-0-9"
       inkscape:connector-curvature="0"
       sodipodi:nodetypes="cccccccscccccccccccccccccccccccccccccscccc" />
    <path
       style="color:#000000;font-style:normal;font-variant:normal;font-weight:normal;font-stretch:normal;font-size:medium;line-height:normal;font-family:sans-serif;text-indent:0;text-align:start;text-decoration:none;text-decoration-line:none;text-decoration-style:solid;text-decoration-color:#000000;letter-spacing:normal;word-spacing:normal;text-transform:none;direction:ltr;block-progression:tb;writing-mode:lr-tb;baseline-shift:baseline;text-anchor:start;white-space:normal;clip-rule:nonzero;display:inline;overflow:visible;visibility:visible;opacity:1;isolation:auto;mix-blend-mode:normal;color-interpolation:sRGB;color-interpolation-filters:linearRGB;solid-color:#000000;solid-opacity:1;fill:#000000;fill-opacity:1;fill-rule:evenodd;stroke:none;stroke-width:1px;stroke-linecap:butt;stroke-linejoin:miter;stroke-miterlimit:4;stroke-dasharray:none;stroke-dashoffset:0;stroke-opacity:1;color-rendering:auto;image-rendering:auto;shape-rendering:auto;text-rendering:auto;enable-background:accumulate"
       d="m 8.6640625,975.0918 -0.3125,0.95117 c 0.1196785,0.0395 0.6721247,0.62353 1.2480469,0.95312 0.5446726,-0.20165 1.4013896,-0.12261 2.2421876,0.31836 1.681596,0.88194 3.672385,2.61964 5.900391,3.04102 1.962267,0.37112 3.841098,1.27445 5.300781,1.91992 1.516436,0.67056 3.635466,1.33227 5.490234,2.32422 1.854768,0.99195 4.858039,2.13637 6.199219,2.09766 -0.0827,-0.17928 -1.226458,-0.42759 -2.47992,-0.9659 -1.285414,-0.55203 -2.687215,-1.39722 -3.311099,-1.73137 -1.825458,-0.97769 -3.818296,-2.39401 -5.43164,-3.10742 -1.444455,-0.63873 -3.507711,-1.36735 -5.644532,-1.77149 -2.069134,-0.39133 -3.545775,-1.80117 -5.183593,-2.66015 -0.81891,-0.42949 -1.975344,-0.53173 -2.679688,-0.67578 C 9.4226094,975.4536 9.021868,975.2099 8.6640625,975.0918 Z"
       id="path4177"
       inkscape:connector-curvature="0"
       sodipodi:nodetypes="cccsssscssssscc" />
    <g
       id="g6151"
       style="fill:url(#pattern6251);fill-opacity:1;stroke:none">
      <path
         sodipodi:nodetypes="cscsccscc"
         inkscape:connector-curvature="0"
         id="path4531"
         d="m 89.89095,1003.3067 c 0,0 -5.42893,2.8903 -7.247845,6.1872 -1.185481,2.1487 -2.386485,7.9549 -2.386485,7.9549 0,0 1.738211,-4.6994 3.270369,-6.6291 2.108878,-2.656 9.679063,-7.6087 9.679063,-7.6087 0.856249,-0.9001 2.722118,-5.15417 -1.02411,-7.65569 1.363816,2.5389 1.329464,4.42051 0.42339,5.35549 -0.720439,0.7434 -1.574033,2.3455 -2.1519,2.7562 -0.250549,-0.2233 -0.463497,-0.4008 -0.562482,-0.3603 z"
         style="fill:url(#pattern6251);fill-opacity:1;fill-rule:evenodd;stroke:none;stroke-width:0.35433072;stroke-linecap:butt;stroke-linejoin:miter;stroke-miterlimit:4;stroke-dasharray:none;stroke-opacity:1" />
      <path
         sodipodi:nodetypes="csscscc"
         inkscape:connector-curvature="0"
         id="path4533"
         d="m 76.013979,1028.9393 c 0,0 4.734306,1.4197 7.071068,0.9723 4.289168,-0.8212 8.418063,-3.2639 11.402097,-6.4524 1.809858,-1.9339 3.447145,-7.1594 3.447145,-7.1594 0,0.7376 -5.730649,6.5637 -8.043339,7.8666 -6.343718,3.5737 -12.197592,3.9774 -12.197592,3.9774 z"
         style="fill:url(#pattern6251);fill-opacity:1;fill-rule:evenodd;stroke:none;stroke-width:0.35433072;stroke-linecap:butt;stroke-linejoin:miter;stroke-miterlimit:4;stroke-dasharray:none;stroke-opacity:1" />
      <path
         sodipodi:nodetypes="ccccc"
         inkscape:connector-curvature="0"
         id="path4535"
         d="m 63.10928,1017.6256 c -4.682446,13.7847 -12.754615,15.0268 -17.766058,15.5563 2.828427,0.6568 5.656855,1.463 8.485282,0.7071 4.592269,-2.3289 6.678123,-5.4932 8.485281,-8.7504 0.64874,-2.5043 1.504012,-5.0087 0.795495,-7.513 z"
         style="fill:url(#pattern6251);fill-opacity:1;fill-rule:evenodd;stroke:none;stroke-width:0.35433072;stroke-linecap:butt;stroke-linejoin:miter;stroke-miterlimit:4;stroke-dasharray:none;stroke-opacity:1" />
      <path
         sodipodi:nodetypes="ccccc"
         inkscape:connector-curvature="0"
         id="path4537"
         d="m 64.523494,1014.7088 c 2.190689,0.8299 4.468275,0.9647 6.894291,-0.088 l 0,1.0607 c -3.625982,2.0232 -5.8716,2.6048 -7.866563,2.298 z"
         style="fill:url(#pattern6251);fill-opacity:1;fill-rule:evenodd;stroke:none;stroke-width:0.35433072;stroke-linecap:butt;stroke-linejoin:miter;stroke-miterlimit:4;stroke-dasharray:none;stroke-opacity:1" />
    </g>
    <g
       id="g6356"
       style="fill:#ffffff;fill-opacity:1">
      <path
         sodipodi:nodetypes="csssc"
         inkscape:connector-curvature="0"
         id="path4191-7-6"
         d="m 21.994877,967.24083 c 0.5898,-0.96698 6.27966,-3.48213 9.08666,-2.26084 2.89488,1.25953 6.23332,4.5744 5.58997,8.81686 -0.23149,1.52648 -1.83825,3.83689 -3.08271,4.648 -5.55207,3.6187 -12.46012,-0.81735 -11.20416,-5.05778"
         style="fill:#ffffff;fill-opacity:1;fill-rule:evenodd;stroke:#aa4400;stroke-width:0.35433072;stroke-linecap:butt;stroke-linejoin:miter;stroke-miterlimit:4;stroke-dasharray:none;stroke-opacity:1" />
      <path
         sodipodi:nodetypes="sssss"
         inkscape:connector-curvature="0"
         id="path4193-7-0"
         d="m 29.226367,967.41938 c -2.37278,-0.7027 -5.13442,10e-4 -6.42857,2.40436 -1.04693,1.94397 -0.70545,5.32504 2.34309,7.16453 3.30104,1.99185 6.62833,0.13524 8.05738,-2.65691 1.20062,-2.34584 -0.52095,-5.88998 -3.9719,-6.91198 z"
         style="fill:#000000;fill-opacity:1;fill-rule:evenodd;stroke:#aa4400;stroke-width:0.35433072;stroke-linecap:butt;stroke-linejoin:miter;stroke-miterlimit:4;stroke-dasharray:none;stroke-opacity:1" />
    </g>
    <path
       style="color:#000000;font-style:normal;font-variant:normal;font-weight:normal;font-stretch:normal;font-size:medium;line-height:normal;font-family:sans-serif;text-indent:0;text-align:start;text-decoration:none;text-decoration-line:none;text-decoration-style:solid;text-decoration-color:#000000;letter-spacing:normal;word-spacing:normal;text-transform:none;direction:ltr;block-progression:tb;writing-mode:lr-tb;baseline-shift:baseline;text-anchor:start;white-space:normal;clip-rule:nonzero;display:inline;overflow:visible;visibility:visible;opacity:1;isolation:auto;mix-blend-mode:normal;color-interpolation:sRGB;color-interpolation-filters:linearRGB;solid-color:#000000;solid-opacity:1;fill:#000000;fill-opacity:1;fill-rule:evenodd;stroke:none;stroke-width:1px;stroke-linecap:butt;stroke-linejoin:miter;stroke-miterlimit:4;stroke-dasharray:none;stroke-dashoffset:0;stroke-opacity:1;color-rendering:auto;image-rendering:auto;shape-rendering:auto;text-rendering:auto;enable-background:accumulate"
       d="m 27.607422,966.67969 c -2.00017,0.0216 -3.97143,0.95216 -5.033203,2.92383 -1.183149,2.19705 -0.74106,5.8591 2.52539,7.83007 1.772983,1.06982 3.618811,1.11768 5.171875,0.50196 1.553065,-0.61573 3.043108,-1.73063 3.808862,-3.2268 0.296115,-0.57856 0.439346,-1.47372 0.445128,-2.11734 0.0212,-2.36024 -2.026958,-4.77124 -4.94149,-5.63438 -0.640301,-0.18963 -1.309839,-0.28453 -1.976562,-0.27734 z m 0.02344,0.99414 c 0.558872,-0.002 1.123833,0.0805 1.669922,0.24219 2.345162,0.69452 3.376386,2.6865 3.565762,4.46093 0.03422,0.32059 0.03901,0.69077 0.0014,1.04687 -0.0094,0.089 -0.02143,0.17717 -0.03633,0.26344 -0.01873,0.2636 -0.146288,0.4724 -0.21646,0.699 -0.663293,1.29598 -1.417799,2.10694 -2.7109,2.6196 -1.293101,0.51266 -2.761003,0.49234 -4.289063,-0.42969 -1.884438,-1.13706 -3.029308,-3.79036 -2.983665,-5.35145 0.01249,-0.42716 0.160405,-0.57544 0.469956,-1.19079 0.833662,-1.65721 2.85272,-2.35343 4.529334,-2.3601 z"
       id="path4193"
       inkscape:connector-curvature="0"
       sodipodi:nodetypes="csssssscccssccsssscc" />
    <path
       style="fill:#ffffff;fill-opacity:1;fill-rule:evenodd;stroke:#66ff00;stroke-width:0.35433072;stroke-linecap:butt;stroke-linejoin:miter;stroke-miterlimit:4;stroke-dasharray:none;stroke-opacity:1"
       d="m 23.40625,970.95595 c 0,0 1.614301,-1.83344 2.71875,-2.21875 0.747548,-0.2608 2.131905,-0.11703 2.875,0.1562 1.180436,0.43403 1.683284,1.25211 2.40625,2.28125 0.477301,0.67944 0.84375,2.40625 0.84375,2.40625 -0.56021,0.6027 -2.161179,1.48128 -3.96875,1.5625 -1.172106,0.0527 -2.015086,-0.16636 -2.84375,-0.90625 -0.959531,-0.85673 -2.03125,-3.2812 -2.03125,-3.2812 z"
       id="path6360"
       inkscape:connector-curvature="0"
       sodipodi:nodetypes="cssscssc" />
    <path
       style="fill:#ffffff;fill-opacity:1;fill-rule:evenodd;stroke:#ffcc00;stroke-width:0.35433072;stroke-linecap:butt;stroke-linejoin:miter;stroke-miterlimit:4;stroke-dasharray:none;stroke-opacity:1"
       d="m 37.069809,977.05515 c -1.8636,1.1959 -1.900139,1.64329 -2.607459,2.56329 -0.74351,0.9671 -0.312571,3.37898 0.486139,4.55198 0.69341,1.0183 2.309621,2.19935 3.535531,2.07715 1.29595,-0.1293 3.658371,-1.92934 3.668121,-2.96104 0.0135,-1.4251 -0.503282,-1.83419 -1.016472,-3.04939 -1.00777,0.8576 -2.363112,1.55535 -2.872612,0.66295 -0.47429,-0.8308 0.235671,-1.5132 0.97227,-2.25397 -0.609544,-0.64262 -1.10904,-1.39529 -2.165518,-1.59097 z"
       id="path4315-5-7"
       inkscape:connector-curvature="0"
       sodipodi:nodetypes="csssscscc" />
    <path
       style="fill:none;fill-rule:evenodd;stroke:#2a7fff;stroke-width:0.35433072;stroke-linecap:butt;stroke-linejoin:miter;stroke-miterlimit:4;stroke-dasharray:none;stroke-opacity:1"
       d="m 25.733521,956.85573 c -0.58527,0.01 -2.65974,0.2605 -3.19922,0.371 -1.56929,0.3202 -1.99101,1.1054 -3.05469,2.3028 -0.82259,0.926 -1.4375,3.6074 -1.4375,3.6074 0,0 -4.73849,0.2965 -6.69531,0.8926 -2.7761304,0.8455 -4.8553504,1.6974 -6.3339804,3.7832 -0.72617,1.0244 -1.23871,1.9512 -0.98829,3.1816 0.39883,1.9595 1.75602,3.7995 3.95118,4.7598 0.5901,1.2066 1.18504,3.6303 3.5214804,4.4004 1.628257,1.62238 3.413565,2.14542 5.20508,2.625 2.27235,4.7939 5.57338,10.8508 10.99414,13.789 0.01837,0.02 0.04937,0.046 0.06836,0.067 3.355091,4.26307 4.306107,5.06257 9.99414,7.46667 0.06131,0.089 1.72989,2.4905 3.05078,3.4981 1.86446,1.4222 4.456222,1.5908 6.429692,2.8574 1.1357,0.7289 3.03515,2.6797 3.03515,2.6797 -1.39253,2.8263 -2.79399,7.0608 -3.62304,11.0742 -1.26201,0.6799 -1.99982,-0.666 -4.164062,-1.4844 0.45555,-1.1303 -1.51654,-2.2368 -2.23047,-2.1074 -1.30583,0.2367 -3.77241,2.2476 -1.79493,3.4004 l 1.84766,1.8047 c 0,0 -3.60637,-0.3059 -6.28516,-0.2949 -1.66702,0.01 -5.3789,-0.8399 -5.3789,-0.8399 -0.76047,-1.4997 -1.3174,-1.0434 -1.91211,-1.1738 -1.53166,-0.3359 -2.23159,0.9581 -2.53125,1.9414 0.01126,1.2053 0.14117,2.029 0.99219,2.5625 1.37436,0.2661 2.64117,0.422 3.17773,0.018 2.71161,0.3149 4.41555,0.7082 6.95508,1.4297 l 3.6543,0.416 c -3.24875,0.9222 -4.896,1.0092 -7.82618,2.0625 -0.34687,-0.7838 -1.4979,-1.0704 -2.50586,-1.1934 -2.56394,0.2061 -3.01167,1.5344 -3.19726,2.7403 0.02651,2.2631 2.93259,3.3464 3.92969,2.6621 1.10417,-0.7115 1.9963,-1.0237 2.5957,-1.2305 0,0 3.76125,-0.2645 5.46289,-0.3555 1.42652,-0.076 2.7378,-0.5446 4.1582,-0.6972 1.39301,-0.1496 2.519792,0.083 3.917972,-0.01 1.37143,-0.087 3.8747,0.6183 5.24219,0.4824 2.5304,-0.2513 4.58986,-1.3533 6.375,-2.707 1.54854,-1.1743 3.53393,-3.5665 4.44141,-5.2851 1.44317,-2.733 1.99804,-8.545 1.99804,-8.545 2.53732,0.4532 4.5369,0.4385 7.73633,-2.0761 0,0 -0.5642,3.3146 -0.25,4.83 0.56785,2.7387 1.17806,4.8287 3.40234,6.92 0.59691,0.1162 1.66076,0.4799 2.19336,0.8554 -0.64518,0.5879 -0.84804,0.6943 -1.64062,1.1524 -1.08946,0.49 -2.05567,1.0402 -3.07813,1.3554 -1.01191,-1.4181 -2.51682,-0.2623 -3.29101,0.3985 -1.22582,1.0463 -0.43427,2.2792 -0.0723,2.6035 0.7646,0.6855 2.51474,0.4208 3.0586,-0.031 l 1.67773,-1.3964 c 0.45337,0.6853 0.4905,1.4801 0.0664,2.3847 -1.56238,1.2667 -3.21729,1.3589 -5.05664,2.3477 -1.13096,0.3579 -1.69913,0.8938 -2.83008,1.5625 -0.70046,-0.014 -2.8425,-0.8891 -3.54297,-0.2949 -0.83069,0.5027 -1.22091,1.5562 -0.71094,2.2265 1.05855,0.9817 1.55004,1.0085 2.44922,1.1934 -2.04586,0.5591 -2.7142,0.6191 -3.44531,2 -0.61284,-0.3991 -1.66699,-1.1688 -2.9375,-0.9102 -1.9907,0.8487 -3.27023,2.7176 -3,3.418 1.25,1.4543 2.8125,2.0625 4.0625,2.0625 2.19711,-0.4177 3.00244,-1.0998 3.59765,-1.8379 3.39131,-0.6579 4.62246,-1.6076 7.53321,-3.2266 1.07446,-0.3072 2.80123,-2.1431 3.33008,-2.9316 0.67477,0.7041 1.01262,0.9899 2.13671,1.0449 -0.64981,0.368 -1.43841,0.677 -1.92578,1.0449 -1.09265,1.2718 -0.75018,2.3237 -0.47656,2.9883 1.0792,1.057 3.63551,1.3903 4.57227,0.4278 l 1.125,-2.3223 c 0.98334,-0.8834 2.127,-1.1152 3.41015,-3.3477 0,0 3.50869,-1.2387 5.16016,-2.5898 3.2635,-2.6699 6.29855,-5.6232 8.95898,-8.8945 2.20084,-2.7062 4.854897,-6.3869 6.376947,-9.5254 1.3987,-2.8842 2.48785,-6.2653 2.75196,-9.4082 0.10741,-1.2781 1.15249,-3.2354 -0.26367,-5.2578 -2.41204,-3.4445 -4.58418,-3.1902 -5.583987,-3.0782 -2.02002,0.2262 -3.94212,0.9361 -5.60156,1.9102 l 0.51758,-2.0274 c 0.6161,-1.41157 1.08446,-2.24537 -0.17969,-3.95107 -0.30598,-0.4129 -1.45198,-1.7536 -2.42578,-3.0274 -3.63674,-4.74903 -6.90417,-8.88014 -9.73828,-11.8105 -3.1957,-3.0858 -6.58748,-6.5882 -10.65039,-8.3848 -3.01141,-1.3316 -7.472,-2.6262 -10.70508,-3.25 -3.6128,-0.697 -7.6299,-0.5225 -11.25977,-1.9277 -3.63744,-1.408 -7.131022,-3.0373 -10.740232,-4.5449 -2.63763,-1.1014 -3.33872,-0.6484 -5.24219,-0.9454 0,0 -2.01301,-3.721 -3.40234,-4.8125 -1.579389,-0.92575 -2.351413,-1.88077 -3.90625,-1.8718 z"
       id="path4171-6-0-2"
       inkscape:connector-curvature="0"
       sodipodi:nodetypes="ccscccscccccccscccccccccccccccccccccccscccsccccsccccccccccccccccccccccsssssccccccsccccccc" />
    <path
       style="fill:#ffffff;fill-opacity:1;fill-rule:evenodd;stroke:#ca00ff;stroke-width:0.35433072;stroke-linecap:butt;stroke-linejoin:miter;stroke-miterlimit:4;stroke-dasharray:none;stroke-opacity:1"
       d="m 37.253781,972.7826 c 0,0 2.645588,1.80417 3.522748,2.07767 1.37293,0.428 2.986474,-0.44429 4.356694,-0.008 4.7236,1.5052 7.908042,5.88061 12.286612,8.20581 2.18681,1.1612 4.674265,1.06557 6.830805,2.28217 1.58228,0.8926 2.351033,2.66117 3.977253,3.47097 1.12715,0.5613 3.113534,0.86714 4.199524,1.50444 1.38494,0.8127 1.46212,2.44988 2.78217,3.36428 0.81218,0.5626 2.01716,0.8514 2.8125,1.4375 1.19921,0.8838 1.72083,2.549 3,3.3125 1.1975,0.7147 3.28217,2.46026 3.235295,2.56966 -0.85441,-0.1375 -1.576824,0.4531 -1.576824,0.4531 0,0 -3.681561,-2.87356 -5.470971,-4.02276 -4.04053,-2.5948 -8.00936,-5.375 -12.375,-7.375 -1.61715,-0.7409 -3.43694,-0.9653 -5.0625,-1.6875 -2.012,-0.8939 -3.89795,-2.0596 -5.75,-3.25 -1.81935,-1.1694 -3.135509,-2.98847 -5.029029,-4.03347 -2.16095,-1.1927 -4.901299,-1.23758 -7.184359,-2.17548 -1.73586,-0.7131 -5.492418,-3.19638 -5.492418,-3.19638 0.4003,-0.5818 0.70376,-1.51532 0.9375,-2.92992 z"
       id="path4317-3-53"
       inkscape:connector-curvature="0"
       sodipodi:nodetypes="csssssssssccssssssccc" />
    <path
       style="fill:url(#pattern6345);fill-opacity:1;fill-rule:evenodd;stroke:none;stroke-width:0.35433072;stroke-linecap:butt;stroke-linejoin:miter;stroke-miterlimit:4;stroke-dasharray:none;stroke-opacity:1"
       d="m 37.209591,972.9151 c 0,0 2.468811,1.5833 3.345971,1.8567 1.37293,0.4281 2.94228,-0.44418 4.3125,-0.008 4.7236,1.5053 9.366449,6.41103 12.242417,8.11741 2.12943,1.26345 4.983625,1.6402 7.140165,2.8567 1.58228,0.8926 2.572004,2.396 4.198224,3.2058 1.12715,0.5613 2.892563,0.73456 3.978553,1.37186 1.38494,0.8127 1.727285,2.67085 3.047335,3.58525 0.81218,0.5626 2.01716,0.63043 2.8125,1.21653 1.19921,0.8838 1.710558,2.59492 2.867417,3.53347 1.153306,0.93567 3.116117,2.29428 3.116117,2.29428 -0.85441,-0.1375 -1.590228,0.4634 -1.590228,0.4634 0,0 -3.637367,-2.82945 -5.426777,-3.97865 -4.04053,-2.5948 -7.788389,-5.19822 -12.154029,-7.19822 -1.61715,-0.7409 -3.43694,-1.14208 -5.0625,-1.86428 -2.012,-0.8939 -3.89795,-2.0596 -5.75,-3.25 -1.81935,-1.1694 -3.268092,-2.98837 -5.161612,-4.03347 -2.16095,-1.1926 -5.033881,-1.14919 -7.316941,-2.08709 -1.73586,-0.713 -5.271447,-3.28477 -5.271447,-3.28477 0.4003,-0.5818 0.438595,-1.38264 0.672335,-2.79734 z"
       id="path4317-3-5"
       inkscape:connector-curvature="0"
       sodipodi:nodetypes="csssssssssccsssssscc" />
    <g
       id="g6412"
       style="fill:#000000;fill-opacity:1">
      <path
         sodipodi:nodetypes="ssscssscscscccccsccccscccsssscsscsssscsccssssssccssscscssccssssccscsssccssssscssccsssscscssscssssccsssssccsssscsssscsccsssccccscccsssccsssssccsscscssscsscccssscccsccsscscccccccsssccssscsccsssssccccssscsssscscsssscccsccsssccssssssscccccsssscccsscccc"
         inkscape:connector-curvature="0"
         id="path4171"
         d="m 26.523159,956.29018 c -1.279884,-0.22194 -2.873928,0.006 -4.066685,0.24887 -1.886707,0.38492 -3.040738,1.56736 -3.789063,2.8697 -0.507699,0.88357 -1.184429,2.16325 -0.908482,3.24218 -0.847149,0.0617 -4.49473,0.0667 -6.40932,0.64984 -2.816753,0.85794 -5.1594812,1.80464 -6.7988278,4.11719 -0.7582134,1.06956 -1.4477242,2.32389 -1.1328124,3.87109 0.4259375,2.09268 1.891898,3.97875 4.0761718,5.10156 0.2042727,0.4649 0.5209245,1.6787 0.9316406,2.36329 0.4411314,0.73528 1.9074588,1.86886 2.4638968,2.03823 0.734588,0.15229 1.588636,0.89463 2.57221,1.47034 0.972246,0.56908 2.427467,1.49852 3.176821,2.22546 2.271924,4.7665 4.68442,9.62057 10.260649,12.70191 1.232595,1.32283 3.904091,3.23816 5.973689,4.74766 1.357615,0.9943 2.660553,1.8739 4.023437,2.6914 0.186296,0.1049 0.339554,0.1589 0.496094,0.2305 0.09745,0.1394 0.394466,0.5692 0.9375,1.2519 0.623459,0.7838 1.398765,1.6989 2.203125,2.3125 l 0.002,0 c 2.152258,1.6418 4.779396,1.8029 6.486328,2.8985 0.777873,0.4992 2.029673,1.7548 2.462891,2.1816 -1.70393,3.568 -2.480907,6.1109 -3.191789,9.2532 -0.129104,0.5707 -0.418639,0.9119 -0.565296,0.934 -0.194868,0.029 -0.509935,-0.3978 -0.777726,-0.513 -0.451501,-0.197 -0.915725,-0.7592 -1.980814,-0.9476 0.05072,-0.7826 -0.185766,-1.5472 -0.772676,-1.8736 -0.708994,-0.3944 -1.937881,-0.4776 -2.658624,-0.347 -0.955246,0.1731 -2.10125,1.1092 -2.486481,2.0605 -0.192633,0.4757 -0.02683,1.2971 0.409468,1.7921 0.358945,0.4072 0.685045,0.6437 1.115732,0.9559 -1.819378,-0.2859 -2.876603,-0.1373 -4.294922,-0.057 -0.679727,0.038 -2.05374,0.1144 -3.170535,-0.093 -1.028625,-0.191 -1.71845,-0.6632 -1.847043,-0.6922 -0.352526,-0.4842 -0.701965,-0.9955 -1.903084,-1.2148 -1.201138,-0.2194 -2.394755,0.02 -2.963031,0.5898 -0.568226,0.5696 -1.114367,1.3728 -1.214102,2.5311 -0.09973,1.1582 0.818192,2.6338 2.100772,3.1339 1.282547,0.5 2.583362,-0.02 3.29976,-0.3745 1.022595,0.3105 3.425607,0.9199 5.533114,1.209 1.225257,0.168 2.365261,0.067 3.037806,0.1565 -0.863635,0.202 -4.919161,0.6778 -5.66038,1.0908 -0.696878,-0.8 -1.999599,-1.2231 -2.883106,-1.1354 -0.972443,0.097 -2.14692,0.6203 -2.838857,1.2325 -0.727527,0.6437 -1.150503,1.5534 -1.152589,2.7823 -0.0021,1.2289 1.167069,2.3549 2.446404,2.8377 1.073196,0.4049 2.170121,0.281 3.114714,-0.3447 0.944593,-0.6257 1.937188,-0.852 2.404592,-0.9712 0.232337,-0.059 3.604234,0.1727 5.272824,0.083 1.644199,-0.088 3.064749,-0.7949 4.29542,-0.9271 3.1942,-0.1485 5.901558,1.1321 9.0697,0.9589 2.645097,-0.1446 4.770731,-1.6186 6.706036,-3.0862 1.774563,-1.3457 3.801001,-3.8377 4.751953,-5.6386 1.397324,-2.6462 1.34286,-7.4433 1.527343,-8.4766 0.738816,0.4376 1.931865,0.4982 2.955078,0.4373 0.859955,-0.051 3.040773,-1.5563 3.546077,-1.996 -0.307197,0.6852 -0.572746,3.3083 -0.507001,4.2597 0.100208,1.4501 0.556943,3.0202 1.394531,4.3496 1.155105,1.8334 2.567185,2.7577 4.136224,3.2313 -1.148265,0.032 -2.413753,0.7249 -3.294425,1.4174 -0.658784,-0.4307 -1.610397,-1.0884 -2.26394,-1.0486 -1.413361,0.086 -2.406118,0.9131 -2.882045,1.3193 -0.815335,0.6959 -0.932282,2.1629 -0.795151,2.8944 0.137149,0.7316 1.20511,1.48 1.635339,1.684 1.26948,0.6017 3.988794,-0.594 4.905788,-1.6198 0.322622,-0.056 0.0016,0.9676 0.07176,0.9788 -0.715372,0.469 -4.931695,1.8494 -5.585013,2.2316 -0.83479,0.4885 -1.509794,1.134 -2.592601,1.6912 -0.163373,-0.3515 -0.147185,-0.5999 -0.936275,-0.8811 -0.652953,-0.2326 -2.068478,-0.066 -2.723229,0.3963 -0.550766,0.3886 -1.401656,1.2424 -1.369294,1.9635 0.02864,0.6381 1.021388,1.7272 1.713676,1.9458 -0.810769,0.074 -1.461822,0.5493 -1.835274,1.4046 -0.242391,-0.6279 -1.557686,-1.1443 -2.736657,-0.7719 -1.178971,0.3724 -2.277512,1.0943 -2.803549,1.7624 -0.526036,0.6681 -1.103109,2.1576 -0.506835,3.1081 0.596275,0.9506 1.530305,1.7012 2.316389,1.8656 0.786085,0.1644 2.054426,0.2768 3.523209,0.06 1.468784,-0.2166 2.492607,-1.3458 2.968091,-1.9717 3.27511,-0.7143 2.515406,-0.3089 5.291003,-1.7345 0.512814,-0.2633 3.583465,-2.538 4.156665,-2.9347 0.437363,-0.3026 0.771895,-0.8115 1.13372,-1.1124 0.07764,0.043 0.125894,0.1501 0.204841,0.1842 -0.176222,0.1301 -0.642286,0.6068 -1.101655,1.0766 -0.459369,0.4697 -0.868774,1.1882 -0.729799,1.9661 0.117072,0.6554 0.298486,1.5815 1.103258,2.173 0.908133,0.6675 2.738635,1.1065 5.034179,0.046 1.436282,-0.6636 1.013107,-1.8836 1.374587,-2.7439 0.369576,-0.3098 1.364353,-0.7676 1.885821,-1.1726 0.492844,-0.3829 0.845225,-1.16 1.429742,-2.0941 0.266824,-0.1256 4.106636,-1.5052 5.906738,-2.9779 3.328937,-2.7234 6.408503,-5.5109 9.086428,-8.8037 2.198517,-2.7033 4.798104,-6.7853 6.394144,-10.0764 1.42076,-2.9297 1.7988,-6.1247 2.07697,-9.435 0.038,-0.4521 0.27609,-0.8215 0.35531,-1.6985 0.0832,-0.9213 0.13096,-3.1265 -0.67628,-4.2793 -1.30208,-1.8594 -3.1468,-2.6166 -4.43559,-3.0262 -1.288779,-0.4096 -2.572267,0.076 -3.064834,0.2439 -1.132582,0.3865 -2.531522,1.2478 -3.453749,1.5873 0.336615,-0.9337 1.218997,-2.62132 0.9277,-3.61489 -0.312557,-1.06622 -1.00344,-2.25497 -1.692523,-3.18472 -1.095536,-1.47815 -7.407539,-10.05629 -12.197266,-14.68135 -3.17444,-3.06531 -5.586285,-5.75951 -9.811941,-7.62808 -3.238066,-1.43185 -8.088415,-2.52697 -11.260603,-3.13895 -3.637894,-0.70182 -7.364913,-0.65091 -10.875279,-2.00976 -3.629994,-1.40516 -6.551312,-2.32594 -10.15625,-3.83175 -2.626729,-1.09717 -4.567727,-0.91892 -6.210938,-1.09766 -0.148986,-0.3103 -0.367311,-0.78413 -0.875,-1.68164 -0.648992,-1.14732 -1.278489,-2.60173 -2.262276,-3.30385 -1.106373,-0.78961 -2.443732,-1.65351 -3.577846,-1.85017 z m 47.158019,75.50202 -2.355006,1.4637 c -0.623452,0.3875 -1.337016,0.6363 -2.010876,0.3845 -0.357523,-0.1337 -0.467108,-0.5907 -0.456074,-0.8225 0.04138,-0.8693 0.889865,-1.6086 1.701057,-1.9157 0.422344,-0.16 0.856328,0.3317 1.166283,0.7661 l 2.33507,-1.1389 c 1.2327,-0.6013 2.482389,-1.5615 3.987464,-1.8656 -0.330306,-0.4327 -0.368543,-0.2111 -0.71216,-0.9267 -0.385775,-0.086 -1.471172,-0.4377 -2.339604,-0.8881 -0.785415,-0.4073 -1.440755,-1.3922 -2.026626,-2.4799 -0.585871,-1.0877 -0.751103,-2.2661 -1.03125,-3.6172 -0.12059,-0.5816 -0.139687,-1.731 -0.101562,-2.6738 0.03812,-0.9428 0.115234,-1.7012 0.115234,-1.7012 l 0.207031,-2.0723 -1.636718,1.2872 c -1.70702,0.8572 -2.655137,1.1936 -3.589844,1.4863 -1.025616,0.3211 -1.995006,0.4561 -3.189453,-0.031 l -0.666016,0.068 -0.115234,0.6601 c 0,0 -0.989898,5.3303 -2.285157,7.7832 -0.864036,1.6363 -2.495832,3.9913 -3.818359,4.9942 -1.634963,1.2398 -3.553282,2.5646 -5.988281,2.6543 -3.026088,0.1115 -6.411867,-0.7933 -9.105469,-0.5371 -1.610125,0.173 -2.902482,0.8785 -4.111328,0.9433 -1.678162,0.09 -5.380989,0.4507 -5.889323,0.6082 -0.508363,0.1574 -1.275857,0.6122 -2.503005,1.0699 -1.227148,0.4577 -2.83424,-0.3981 -3.056883,-1.5204 -0.08341,-0.4204 0.353302,-1.1553 0.706802,-1.4728 0.370044,-0.3323 1.120193,-0.7668 2.237438,-0.7285 1.424345,0.049 1.132826,0.3442 1.23195,0.4145 0.164907,0.038 0.530764,1.0445 0.530764,1.0445 l 0.878907,-0.6016 c 0.892645,-0.611 2.286695,-0.8429 3.842433,-1.1429 2.582949,-0.4981 3.54214,-0.6755 5.885585,-2.0504 -2.59422,0.371 -4.62966,-0.2957 -6.845544,-0.6273 -1.135516,-0.17 -4.555939,-0.7498 -5.764973,-1.1729 -1.689372,-0.1578 -1.667664,0.1294 -2.662419,-0.2076 -0.615173,-0.2084 -0.964124,-0.7768 -0.863282,-1.5157 0.134756,-0.9874 0.787747,-1.167 1.421876,-1.2051 0.932882,-0.056 0.972998,0.2376 1.438647,0.7061 0,0 1.409404,0.6835 2.565259,0.8981 1.155836,0.2145 2.495436,0.4801 3.480468,0.4316 2.565659,-0.1263 7.812472,-0.1743 8.013672,0.1074 l -0.244331,-0.6047 -1.976334,-1.4407 c -0.373399,-0.2193 -1.239353,-1.3593 -1.215404,-1.6386 0.02395,-0.2793 0.249381,-1.1143 1.073624,-1.3371 0.950879,-0.2571 1.56328,0.038 1.712475,0.3421 0.07871,0.1604 0.453542,1.3477 0.453542,1.3477 1.248121,0.3438 1.36071,1.2546 2.335096,1.6907 0.454298,0.1982 1.005065,0.3329 1.59375,0.2441 0.588685,-0.089 1.163089,-0.379 1.867826,-2.4326 0.704737,-2.0536 1.445615,-4.6977 2.942724,-7.9697 0.611268,-1.1545 0.253839,-2.0238 -0.338693,-2.8238 0,0 -0.967573,-1.5569 -2.329619,-2.431 -2.24,-1.4377 -4.991354,-1.3687 -6.568015,-2.5714 -0.540901,-0.4126 -1.94916,-2.0688 -2.445005,-3.4441 -1.119835,-0.4869 -1.231334,-0.4975 -2.41437,-1.1069 -0.799018,-0.4116 -2.727198,-1.6239 -3.762062,-2.3787 -2.165086,-1.70108 -3.536073,-3.17007 -5.502754,-4.90257 -4.441863,-3.46466 -7.645979,-8.34255 -9.828934,-12.89645 -2.043758,-0.938 -3.911527,-1.32006 -6.071323,-2.95429 -0.563932,-0.1864 -1.394641,-1.08078 -1.6396145,-1.48911 -0.2449732,-0.40833 -0.5560064,-1.62917 -0.9140625,-2.36133 l -0.1425781,-0.29101 -0.296875,-0.13086 c -1.9371574,-0.84744 -3.0953458,-2.44396 -3.4375,-4.125 -0.185964,-0.91367 0.1476621,-1.51302 0.8417969,-2.49219 1.3179064,-1.85911 3.1336222,-2.61407 5.8691402,-3.44727 1.704148,-0.51906 5.921597,-1.21456 5.921597,-1.21456 0.953313,-0.23398 1.064671,-0.47524 1.0452,-1.31476 -0.120917,-0.63617 0.367001,-1.4123 0.625837,-1.70368 1.015297,-1.14295 2.363036,-2.04554 3.577288,-2.44309 1.177359,-0.38547 2.249123,-0.36831 3.127021,-0.35105 1.017719,0.02 2.48599,0.6806 3.06836,1.46653 0.332279,0.44842 1.378755,1.57087 1.993583,2.64843 0.456173,0.79949 0.903497,1.27163 1.296754,2.10302 2.618012,-0.33445 4.570802,0.59712 6.334105,1.30605 3.613472,1.50938 6.600925,2.75091 10.245815,4.16183 3.749358,1.45137 7.411731,1.49285 10.999441,2.18499 3.29397,0.63548 8.007655,2.05821 10.792411,3.28962 3.900162,1.72463 5.990057,4.04206 9.207031,7.14844 4.562149,4.40531 10.910289,12.94045 12.003907,14.41601 0.575061,0.7759 1.354033,1.63177 1.59375,2.4495 0.239716,0.81766 0.0091,1.9728 -0.176344,2.3976 l -1.785994,3.2823 1.815848,-0.979 c 1.592721,-0.935 2.73643,-1.3058 4.680524,-1.5232 0.485125,-0.054 1.601972,0.095 2.532924,0.3912 0.93094,0.2959 2.16854,0.9521 3.27846,2.5371 0.60894,0.8696 0.61782,1.6593 0.56669,2.2112 -0.0511,0.5518 -0.3095,0.8867 -0.37892,1.7127 -0.25005,2.9755 -1.39651,6.241 -2.77316,9.0797 -1.44804,2.9859 -4.126872,6.6693 -6.330067,9.3784 -2.642887,3.2497 -5.094228,5.8316 -8.321149,8.4124 -1.755959,1.4043 -3.897601,2.8038 -5.830637,3.7564 -0.385017,0.7729 -0.824363,1.205 -1.407087,1.736 -0.365296,0.3329 -1.135926,0.9718 -1.856864,1.0081 -0.04332,1.1183 -0.348909,1.4217 -0.889487,2.1443 -0.479771,0.6414 -1.990781,0.5511 -2.601686,0.3026 -0.64652,-0.2631 -0.869331,-0.9916 -0.837014,-1.2666 0.04855,-0.413 0.383589,-1.0149 0.54638,-1.1548 0.480949,-0.4133 1.47437,-0.7288 1.987725,-1.0195 l 1.642112,-1.1349 -2.281289,0.3092 c -1.06823,0.4051 -1.268551,0.259 -1.53941,0.033 -0.274973,-0.2299 -0.213245,-0.2045 -0.429896,-0.4308 l -0.359235,-0.6686 c -0.488236,0.2458 -0.365856,0.303 -0.573823,0.5688 -0.09653,0.1234 -1.901594,1.2365 -2.453254,1.5037 -0.551619,0.2671 -2.205176,1.8903 -3.145083,2.3037 -1.87573,0.8251 -1.690966,0.6817 -4.917279,1.3076 l -0.31836,0.062 -0.203125,0.2519 c -0.70824,0.8783 -0.80298,1.5 -2.722196,1.7856 -0.608055,0.091 -1.413777,0.012 -1.847196,-0.079 -0.390701,-0.082 -1.088502,-0.3416 -1.188113,-0.9852 -0.08539,-0.5518 0.135889,-0.9387 0.405905,-1.3148 0.265504,-0.3699 0.463304,-0.8149 1.324181,-1.0776 0.896248,-0.2736 1.756956,-0.265 2.314758,0.1469 l 0.836551,0.6177 c 0.255638,0.088 0.447905,-0.077 0.585707,-0.4597 0.228955,-0.4324 0.440912,-0.9552 1.206879,-1.2966 0.765967,-0.3413 1.621999,-0.5728 2.644761,-0.8523 l -0.253556,-0.949 c -0.681377,-0.1401 -1.072636,0.022 -1.366077,0.022 -0.265511,0 -0.621869,-0.01 -0.857192,-0.3365 -0.271616,-0.3818 -0.398113,-0.7111 -0.394685,-0.9852 0.0049,-0.3938 0.432712,-1.0514 1.214473,-1.0617 0.589697,-0.01 1.219983,0.9638 1.849947,0.9767 l 0.251953,0.01 0.216797,-0.1289 c 0.982646,-0.5811 1.641518,-1.2107 2.831414,-1.7096 1.189896,-0.4989 1.971262,-0.911 2.557264,-1.2168 1.337646,-0.4928 1.745916,-1.0651 2.753639,-1.6124 0.440181,-0.9389 0.514994,-1.5784 0.417701,-2.5843 z"
         style="color:#000000;font-style:normal;font-variant:normal;font-weight:normal;font-stretch:normal;font-size:medium;line-height:normal;font-family:sans-serif;text-indent:0;text-align:start;text-decoration:none;text-decoration-line:none;text-decoration-style:solid;text-decoration-color:#000000;letter-spacing:normal;word-spacing:normal;text-transform:none;direction:ltr;block-progression:tb;writing-mode:lr-tb;baseline-shift:baseline;text-anchor:start;white-space:normal;clip-rule:nonzero;display:inline;overflow:visible;visibility:visible;opacity:1;isolation:auto;mix-blend-mode:normal;color-interpolation:sRGB;color-interpolation-filters:linearRGB;solid-color:#000000;solid-opacity:1;fill:#000000;fill-opacity:1;fill-rule:evenodd;stroke:none;stroke-width:1.77165353;stroke-linecap:butt;stroke-linejoin:miter;stroke-miterlimit:4;stroke-dasharray:none;stroke-dashoffset:0;stroke-opacity:1;color-rendering:auto;image-rendering:auto;shape-rendering:auto;text-rendering:auto;enable-background:accumulate" />
      <path
         sodipodi:nodetypes="cscsccsssssscscccsssssscscscsssssscscscssssscccccccccscccccccccsssssscssscsssssscscsscssssscccsscsssssscccssscssscccc"
         inkscape:connector-curvature="0"
         id="path4173"
         d="m 26.423828,1002.2363 c -1.112032,0.1548 -2.226796,0.708 -2.595703,1.4981 -0.298405,0.6391 0.09054,1.5279 0.15625,2.2422 -0.622584,-0.012 -0.875054,-0.1581 -1.5,-0.2289 -0.917384,-0.1038 -3.003803,-0.323 -3.544922,1.7559 -3.389534,0.9579 -3.639158,1.9152 -7.096087,2.6016 -0.76635,-0.5635 -2.1161775,-0.9138 -2.8676479,-0.8778 -0.8540779,0.041 -1.6988371,0.1269 -2.7195927,0.8263 -0.7325365,0.5019 -1.2920883,1.3921 -1.2650895,2.4142 0.029248,1.1072 1.0436467,2.3473 1.8693328,2.8619 0.8257309,0.5147 1.9446351,0.4551 2.8757277,0.3997 1.1734736,-0.07 1.9783066,-1.0052 2.3611756,-1.4193 0.447801,-0.4844 0.36836,-1.0982 0.376953,-1.4492 1.267019,-0.04 2.292786,0.2218 4.307939,-0.055 1.855714,-0.2546 3.730692,-1.0416 4.956117,-1.2364 l -4.134765,2.43 c -0.89343,0.4221 -2.184518,1.1306 -3.7482,2.4409 -0.13124,0.037 -0.785006,-0.065 -1.615694,0.2629 -0.915603,0.3619 -1.363803,0.5504 -2.003716,1.4523 -0.3501358,0.4935 -0.6616113,1.1254 -0.6872701,1.7386 -0.025659,0.6133 0.4508016,1.5172 1.0455351,2.0119 0.907988,0.7552 1.931247,0.92 3.073338,0.8094 1.14209,-0.1106 1.897507,-0.8453 2.708334,-1.5587 0.661183,-0.5817 0.982196,-1.1715 1.225719,-1.8761 l 4.571627,-2.2953 c 1.015062,-0.5096 3.277137,-2.5852 5.385408,-4.4722 0.201142,0.8611 -0.120878,1.9913 0.236777,2.7612 0.357616,0.7698 1.604577,1.9327 3.329054,2.6001 -0.264647,0.8368 -0.563682,1.3139 -0.71875,1.9279 -0.34342,1.3599 1.048197,2.6976 2.213488,2.973 0.554812,0.1312 2.046753,0.062 2.497834,-0.2062 1.054556,-0.6273 1.193546,-0.9032 1.811238,-1.5753 0.477875,-0.5199 0.847,-1.1523 0.762906,-2.2082 -0.09145,-1.1483 -0.722355,-1.7573 -1.388404,-2.2506 -0.545683,-0.4042 -1.228872,-0.2435 -1.335477,-0.4087 -0.698794,-0.5335 -0.93817,-1.4309 -1.302294,-2.2291 -0.188708,-0.4137 -0.701508,-1.5664 -0.410597,-2.0297 1.189117,1.662 3.180903,2.8963 3.937332,3.0278 0.956712,0.1663 3.019297,0.072 4.487992,0.4364 0.606119,0.7511 0.857038,1.6466 1.693359,1.8985 0.60902,0.1834 1.891849,0.3662 2.682368,-0.017 0.788989,-0.3828 1.733625,-2.2047 1.936773,-3.4222 0.147149,-0.8819 -0.248346,-1.9188 -0.658204,-2.6328 -0.409522,-0.7134 -1.314112,-1.0297 -2.185546,-0.959 -0.701704,0.057 -1.282382,0.4325 -1.802781,0.7422 -0.509571,-0.2967 -1.018962,-0.6335 -1.640625,-0.9746 -0.626862,-0.3439 -1.391366,-0.5761 -2.226562,-0.625 -0.698439,-0.9399 -1.119939,-1.6108 -1.1875,-2.1308 0.14537,-1.446 0.241236,-1.7574 0.566406,-3.0176 -4.793634,-2.6953 -8.621701,-5.5925 -12.132794,-9.39472 -0.770934,2.31607 -0.523838,5.34092 -0.300762,7.43732 z m 1.97461,-3.70114 c 0.917785,1.50614 2.205883,3.03384 3.63599,4.10214 1.402849,1.0479 3.387624,1.467 4.928463,2.0209 -0.322226,1.0386 -0.540358,1.9221 -0.427735,2.7891 0.141627,1.0901 0.728628,2.0172 1.703125,3.2715 l 0.302735,0.3906 0.492187,-0.053 c 0.637394,-0.069 1.179354,0.1201 1.818359,0.4707 0.639006,0.3507 1.322979,0.8642 2.148438,1.2715 l 0.490234,0.2422 0.435547,-0.3281 c 0.578172,-0.4366 1.096366,-1.2175 1.652344,-1.1465 1.453801,0.1859 1.125049,2.3113 0.632505,3.1841 -0.282048,0.4997 -0.844769,1.0094 -1.575935,0.983 -1.272037,-0.046 -1.763933,-1.3194 -2.557196,-1.5126 -1.262809,-0.3077 -3.990177,-0.3678 -3.990177,-0.3678 -1.732802,-0.3259 -3.415872,-0.8938 -4.200616,-2.6081 l -0.523438,-1.1435 -0.560719,0.6858 c -0.637156,0.7792 -1.006332,1.2757 -0.869926,1.9406 0.106675,0.52 0.443393,1.2789 0.62655,1.7691 0.360187,0.9641 1.267933,2.428 1.426471,2.6495 0.696123,0.078 1.203787,0.1302 1.562653,0.3815 0.541214,0.3791 0.909311,1.0808 0.830192,1.4204 -0.08761,0.376 -0.315961,0.8397 -0.651557,1.2603 -0.361572,0.4532 -0.953427,0.7518 -1.329292,0.8924 -0.439334,0.1643 -1.151026,-0.018 -1.496398,-0.1957 -0.583966,-0.3002 -1.069313,-0.7582 -1.016488,-1.3823 l 0.158203,-1.8691 c -0.705255,-1.1148 -2.029616,-1.8263 -2.448798,-3.047 -0.555365,-1.6172 -0.669773,-3.4433 -0.54458,-5.0138 -0.622388,0.2637 -1.198119,0.6439 -1.762081,1.0537 -2.48703,1.8067 -4.427575,4.6196 -6.671454,5.7228 l -4.014496,1.9738 c -0.576722,0.577 -0.709652,0.982 -0.728515,1.6112 -0.423185,0.3583 -1.642201,1.0656 -2.475222,1.1353 -1.080897,0.09 -1.648624,0.01 -1.916097,-0.667 -0.09798,-0.2476 -0.309078,-0.8907 0.01134,-1.4316 0.340355,-0.5745 1.061968,-1.0545 2.637791,-1.0151 0.439932,0.011 -0.413197,0.1075 0.648364,-0.7509 0.974537,-0.7881 2.589441,-1.1389 3.224445,-1.4478 2.394105,-1.8791 4.923236,-3.6845 6.437738,-6.0433 -0.916667,0.304 -2.035759,0.743 -2.75,0.9121 -3.604579,0.8533 -5.928182,1.5855 -9.205462,1.666 l -0.732422,0.018 c -0.08185,0.7113 -0.801747,1.2637 -1.254404,1.6005 -0.6024611,0.4482 -1.1309487,0.4155 -1.5963931,0.443 -0.4368325,0.026 -1.006134,-0.2935 -1.5258507,-0.6175 -0.5196718,-0.3239 -0.5970358,-0.7886 -0.5968909,-1.3619 6.6e-5,-0.2613 0.2822539,-0.9362 0.9348964,-1.2872 0.4645101,-0.2498 1.0676564,-0.4209 1.6511957,-0.4566 1.1079066,-0.068 1.7941006,0.1665 2.3734296,0.7506 0.450386,-0.1613 7.95067,-2.4516 8.578854,-2.6318 l 0.269532,-0.076 0.175781,-0.2168 c 0.478658,-0.5885 1.061397,-1.3778 1.740234,-1.4903 0.52037,-0.086 1.414903,-0.2783 2.058744,-0.1874 0.446149,0.063 0.705153,0.7621 1.11036,1.0189 0.482601,0.306 1.450951,0.3369 1.940271,0.4795 -0.752598,-0.4076 -1.800385,-0.889 -2.146484,-1.7579 -0.827768,-2.078 -0.336005,-2.2922 0.13867,-2.4921 0.489419,-0.2062 1.12249,-0.1204 2.05664,-0.5098 l 0.646485,-0.2695 c -0.162691,-0.7589 -0.198387,-1.6022 -0.22663,-2.2808 0.02451,-0.8772 0.187937,-1.73544 0.31649,-2.45194 z"
         style="color:#000000;font-style:normal;font-variant:normal;font-weight:normal;font-stretch:normal;font-size:medium;line-height:normal;font-family:sans-serif;text-indent:0;text-align:start;text-decoration:none;text-decoration-line:none;text-decoration-style:solid;text-decoration-color:#000000;letter-spacing:normal;word-spacing:normal;text-transform:none;direction:ltr;block-progression:tb;writing-mode:lr-tb;baseline-shift:baseline;text-anchor:start;white-space:normal;clip-rule:nonzero;display:inline;overflow:visible;visibility:visible;opacity:1;isolation:auto;mix-blend-mode:normal;color-interpolation:sRGB;color-interpolation-filters:linearRGB;solid-color:#000000;solid-opacity:1;fill:#000000;fill-opacity:1;fill-rule:evenodd;stroke:none;stroke-width:1.77165353;stroke-linecap:butt;stroke-linejoin:miter;stroke-miterlimit:4;stroke-dasharray:none;stroke-dashoffset:0;stroke-opacity:1;color-rendering:auto;image-rendering:auto;shape-rendering:auto;text-rendering:auto;enable-background:accumulate" />
      <path
         sodipodi:nodetypes="cccsssccsscc"
         inkscape:connector-curvature="0"
         id="path4175"
         d="m 80.373047,981.73828 c 2.807731,3.13631 5.539847,6.34155 8.114902,9.67265 0.758631,0.97092 2.569289,3.27437 3.320758,4.25084 1.095931,-1.07885 2.267115,-3.21026 2.764451,-4.70748 0.623995,-1.87853 -0.222311,-5.02837 -1.624305,-6.47514 -1.256731,-1.29687 -3.606633,-2.1155 -5.301098,-2.52758 -2.362843,-0.57462 -4.861732,0.0533 -7.274708,-0.21329 z m 3.223998,1.48208 c 1.634116,-0.2313 4.881064,0.52499 6.595222,1.28408 1.364123,0.60408 2.967191,3.72717 2.646011,5.17457 -0.184082,0.82957 -0.834685,1.82202 -1.449301,2.42359 -1.95409,-2.52981 -5.713718,-6.45372 -7.791932,-8.88224 z"
         style="color:#000000;font-style:normal;font-variant:normal;font-weight:normal;font-stretch:normal;font-size:medium;line-height:normal;font-family:sans-serif;text-indent:0;text-align:start;text-decoration:none;text-decoration-line:none;text-decoration-style:solid;text-decoration-color:#000000;letter-spacing:normal;word-spacing:normal;text-transform:none;direction:ltr;block-progression:tb;writing-mode:lr-tb;baseline-shift:baseline;text-anchor:start;white-space:normal;clip-rule:nonzero;display:inline;overflow:visible;visibility:visible;opacity:1;isolation:auto;mix-blend-mode:normal;color-interpolation:sRGB;color-interpolation-filters:linearRGB;solid-color:#000000;solid-opacity:1;fill:#000000;fill-opacity:1;fill-rule:evenodd;stroke:none;stroke-width:1.77165353;stroke-linecap:butt;stroke-linejoin:miter;stroke-miterlimit:4;stroke-dasharray:none;stroke-dashoffset:0;stroke-opacity:1;color-rendering:auto;image-rendering:auto;shape-rendering:auto;text-rendering:auto;enable-background:accumulate" />
      <path
         sodipodi:nodetypes="sscsssssssscssssssss"
         inkscape:connector-curvature="0"
         id="path4191"
         d="m 28.042969,964.07227 c -1.962113,0.24981 -2.917993,0.48796 -4.569012,1.39081 -0.678849,0.37123 -2.019925,1.53926 -1.892386,2.33583 1.946509,-1.15782 3.130927,-1.74998 3.920382,-2.05477 1.453283,-0.56108 3.664195,-0.75487 4.876953,-0.44531 1.449768,0.37005 2.971306,1.70378 4.119141,3.14258 1.147834,1.43879 1.951979,3.19805 1.550781,5.14062 -0.376605,1.82349 -1.386043,3.22733 -2.861328,4.30469 -2.514878,1.83655 -5.782613,1.64791 -7.94514,0.44436 -0.603132,-0.33568 -1.365059,-0.94902 -1.868149,-1.689 -0.398827,-0.58662 -0.589829,-1.29388 -0.729105,-1.71547 -0.416043,-1.25938 -0.292392,-1.31459 -0.406559,-4.37919 -0.580517,1.32788 -0.572711,4.43266 -0.0207,5.59332 0.552012,1.16066 1.404079,2.20009 2.637619,2.8866 2.46708,1.37304 6.377647,2.49945 9.320848,0.58115 0.721698,-0.47039 2.06751,-1.54983 2.681218,-2.46047 0.613708,-0.91065 1.017953,-2.60817 1.153799,-3.50399 0.345951,-2.28131 -1.018328,-4.40831 -2.290095,-6.00245 -1.271767,-1.59414 -2.756165,-2.68457 -4.720971,-3.39135 -0.840663,-0.3024 -1.988373,-0.30132 -2.9573,-0.17796 z"
         style="color:#000000;font-style:normal;font-variant:normal;font-weight:normal;font-stretch:normal;font-size:medium;line-height:normal;font-family:sans-serif;text-indent:0;text-align:start;text-decoration:none;text-decoration-line:none;text-decoration-style:solid;text-decoration-color:#000000;letter-spacing:normal;word-spacing:normal;text-transform:none;direction:ltr;block-progression:tb;writing-mode:lr-tb;baseline-shift:baseline;text-anchor:start;white-space:normal;clip-rule:nonzero;display:inline;overflow:visible;visibility:visible;opacity:1;isolation:auto;mix-blend-mode:normal;color-interpolation:sRGB;color-interpolation-filters:linearRGB;solid-color:#000000;solid-opacity:1;fill:#000000;fill-opacity:1;fill-rule:evenodd;stroke:none;stroke-width:1px;stroke-linecap:butt;stroke-linejoin:miter;stroke-miterlimit:4;stroke-dasharray:none;stroke-dashoffset:0;stroke-opacity:1;color-rendering:auto;image-rendering:auto;shape-rendering:auto;text-rendering:auto;enable-background:accumulate" />
      <g
         id="g6401"
         style="fill:#000000;fill-opacity:1">
        <path
           style="color:#000000;font-style:normal;font-variant:normal;font-weight:normal;font-stretch:normal;font-size:medium;line-height:normal;font-family:sans-serif;text-indent:0;text-align:start;text-decoration:none;text-decoration-line:none;text-decoration-style:solid;text-decoration-color:#000000;letter-spacing:normal;word-spacing:normal;text-transform:none;direction:ltr;block-progression:tb;writing-mode:lr-tb;baseline-shift:baseline;text-anchor:start;white-space:normal;clip-rule:nonzero;display:inline;overflow:visible;visibility:visible;opacity:1;isolation:auto;mix-blend-mode:normal;color-interpolation:sRGB;color-interpolation-filters:linearRGB;solid-color:#000000;solid-opacity:1;fill:#000000;fill-opacity:1;fill-rule:evenodd;stroke:none;stroke-width:1px;stroke-linecap:butt;stroke-linejoin:miter;stroke-miterlimit:4;stroke-dasharray:none;stroke-dashoffset:0;stroke-opacity:1;color-rendering:auto;image-rendering:auto;shape-rendering:auto;text-rendering:auto;enable-background:accumulate"
           d="m 18.222656,984.32812 c 0.704245,0.3333 3.27982,0.95206 4.454563,1.47094 5.164093,2.28096 7.448219,3.86687 11.136024,4.45316 1.189322,0.18908 3.760397,0.36491 5.703843,0.16247 -0.530536,-0.59945 -3.901236,-0.48878 -5.760198,-0.91755 -3.249416,-0.74947 -6.167869,-2.5016 -9.188193,-3.99207 -2.291394,-1.13075 -4.731922,-2.16076 -6.996688,-3.23485 -0.192738,0.67189 0.400683,1.46456 0.650649,2.0579 z"
           id="path4179"
           inkscape:connector-curvature="0"
           sodipodi:nodetypes="csscsscc" />
        <path
           style="color:#000000;font-style:normal;font-variant:normal;font-weight:normal;font-stretch:normal;font-size:medium;line-height:normal;font-family:sans-serif;text-indent:0;text-align:start;text-decoration:none;text-decoration-line:none;text-decoration-style:solid;text-decoration-color:#000000;letter-spacing:normal;word-spacing:normal;text-transform:none;direction:ltr;block-progression:tb;writing-mode:lr-tb;baseline-shift:baseline;text-anchor:start;white-space:normal;clip-rule:nonzero;display:inline;overflow:visible;visibility:visible;opacity:1;isolation:auto;mix-blend-mode:normal;color-interpolation:sRGB;color-interpolation-filters:linearRGB;solid-color:#000000;solid-opacity:1;fill:#000000;fill-opacity:1;fill-rule:evenodd;stroke:none;stroke-width:1px;stroke-linecap:butt;stroke-linejoin:miter;stroke-miterlimit:4;stroke-dasharray:none;stroke-dashoffset:0;stroke-opacity:1;color-rendering:auto;image-rendering:auto;shape-rendering:auto;text-rendering:auto;enable-background:accumulate"
           d="m 82.769179,1001.098 c -3.019932,1.2714 -6.01977,3.3985 -8.316761,5.7083 -1.132039,1.1383 -1.893396,2.8049 -2.484255,4.2955 -0.633499,1.5982 -0.991757,3.1136 -1.261132,4.4758 0.333333,0 0.854167,0.6975 1.1875,0.7015 0.159614,-1.9341 0.983938,-4.0133 1.785103,-5.7607 0.843675,-1.8401 2.249642,-3.5573 3.757722,-4.8547 2.054325,-1.7673 4.177468,-3.4165 6.841446,-4.0684 1.404618,-0.3437 3.195886,0.2915 4.568854,0.6818 -0.507187,-1.5014 -4.743995,-1.7409 -6.078477,-1.1791 z"
           id="path4181"
           inkscape:connector-curvature="0"
           sodipodi:nodetypes="sssccssscs" />
        <path
           style="color:#000000;font-style:normal;font-variant:normal;font-weight:normal;font-stretch:normal;font-size:medium;line-height:normal;font-family:sans-serif;text-indent:0;text-align:start;text-decoration:none;text-decoration-line:none;text-decoration-style:solid;text-decoration-color:#000000;letter-spacing:normal;word-spacing:normal;text-transform:none;direction:ltr;block-progression:tb;writing-mode:lr-tb;baseline-shift:baseline;text-anchor:start;white-space:normal;clip-rule:nonzero;display:inline;overflow:visible;visibility:visible;opacity:1;isolation:auto;mix-blend-mode:normal;color-interpolation:sRGB;color-interpolation-filters:linearRGB;solid-color:#000000;solid-opacity:1;fill:#000000;fill-opacity:1;fill-rule:evenodd;stroke:none;stroke-width:1px;stroke-linecap:butt;stroke-linejoin:miter;stroke-miterlimit:4;stroke-dasharray:none;stroke-dashoffset:0;stroke-opacity:1;color-rendering:auto;image-rendering:auto;shape-rendering:auto;text-rendering:auto;enable-background:accumulate"
           d="m 92.877528,1002.7502 c 0,0 -5.121545,3.2409 -7.506434,5.4998 -1.650628,1.5634 -2.360885,2.3625 -3.515396,4.3178 -1.028565,1.742 -1.680519,4.4159 -1.657515,5.4887 0.697481,-1.0144 1.319447,-3.4245 2.116578,-4.8996 1.059968,-1.9616 2.12719,-2.8721 3.743833,-4.4033 2.155805,-2.0419 7.648437,-5.0036 7.648437,-5.0036 z"
           id="path4183"
           inkscape:connector-curvature="0"
           sodipodi:nodetypes="csscsscc" />
        <path
           style="color:#000000;font-style:normal;font-variant:normal;font-weight:normal;font-stretch:normal;font-size:medium;line-height:normal;font-family:sans-serif;text-indent:0;text-align:start;text-decoration:none;text-decoration-line:none;text-decoration-style:solid;text-decoration-color:#000000;letter-spacing:normal;word-spacing:normal;text-transform:none;direction:ltr;block-progression:tb;writing-mode:lr-tb;baseline-shift:baseline;text-anchor:start;white-space:normal;clip-rule:nonzero;display:inline;overflow:visible;visibility:visible;opacity:1;isolation:auto;mix-blend-mode:normal;color-interpolation:sRGB;color-interpolation-filters:linearRGB;solid-color:#000000;solid-opacity:1;fill:#000000;fill-opacity:1;fill-rule:evenodd;stroke:none;stroke-width:1px;stroke-linecap:butt;stroke-linejoin:miter;stroke-miterlimit:4;stroke-dasharray:none;stroke-dashoffset:0;stroke-opacity:1;color-rendering:auto;image-rendering:auto;shape-rendering:auto;text-rendering:auto;enable-background:accumulate"
           d="m 100.57147,1012.0639 c -0.6306,0.5748 -1.940813,3.1603 -3.579666,4.966 -2.648376,2.918 -4.857957,5.1463 -8.287125,7.1574 -2.463554,1.4448 -5.222147,2.7932 -8.09914,3.1689 -1.285984,0.1679 -2.773528,0.468 -4.012746,0.2168 -0.02737,0.4344 -0.190377,1.0886 -0.257377,1.7148 1.678856,-0.7707 4.745773,-0.8169 6.669071,-1.4112 3.256293,-1.0062 5.83885,-2.3094 8.550999,-4.3281 2.464438,-1.8343 4.524723,-4.2108 5.448669,-5.3314 0.900158,-1.0917 2.281145,-3.8779 3.802015,-5.8243 0.59894,-0.7665 1.25691,-1.1974 1.85931,-1.6538 -0.44754,-0.2875 -1.84821,1.1008 -2.09401,1.3249 z"
           id="path4185"
           inkscape:connector-curvature="0"
           sodipodi:nodetypes="ssssccsssscs" />
        <path
           style="color:#000000;font-style:normal;font-variant:normal;font-weight:normal;font-stretch:normal;font-size:medium;line-height:normal;font-family:sans-serif;text-indent:0;text-align:start;text-decoration:none;text-decoration-line:none;text-decoration-style:solid;text-decoration-color:#000000;letter-spacing:normal;word-spacing:normal;text-transform:none;direction:ltr;block-progression:tb;writing-mode:lr-tb;baseline-shift:baseline;text-anchor:start;white-space:normal;clip-rule:nonzero;display:inline;overflow:visible;visibility:visible;opacity:1;isolation:auto;mix-blend-mode:normal;color-interpolation:sRGB;color-interpolation-filters:linearRGB;solid-color:#000000;solid-opacity:1;fill:#000000;fill-opacity:1;fill-rule:evenodd;stroke:none;stroke-width:1px;stroke-linecap:butt;stroke-linejoin:miter;stroke-miterlimit:4;stroke-dasharray:none;stroke-dashoffset:0;stroke-opacity:1;color-rendering:auto;image-rendering:auto;shape-rendering:auto;text-rendering:auto;enable-background:accumulate"
           d="m 52.962815,998.06564 c -0.211023,0.82672 2.402335,2.49196 3.22566,3.34226 1.376064,1.421 2.345838,2.5221 3.269628,4.3068 1.273195,2.4597 3.827383,3.4307 4.746445,6.2475 0.758448,2.3244 -0.959339,3.7432 -1.129553,5.2036 0.4755,0.1837 1.142501,0.6125 1.300576,0.2973 0.321599,-0.6411 0.287554,-1.5664 0.722019,-2.3162 0.541738,-0.935 0.986787,-2.2119 0.725041,-3.2487 -0.376526,-1.4913 -1.790295,-2.7218 -2.894032,-3.7158 -0.594066,-0.535 -1.471461,-1.1927 -1.930771,-1.8186 -0.793312,-1.081 -1.395597,-2.0032 -2.182192,-3.1139 -1.38989,-1.9625 -3.889764,-3.81516 -5.852821,-5.18426 z"
           id="path4187"
           inkscape:connector-curvature="0"
           sodipodi:nodetypes="csssccsssssc" />
        <path
           style="color:#000000;font-style:normal;font-variant:normal;font-weight:normal;font-stretch:normal;font-size:medium;line-height:normal;font-family:sans-serif;text-indent:0;text-align:start;text-decoration:none;text-decoration-line:none;text-decoration-style:solid;text-decoration-color:#000000;letter-spacing:normal;word-spacing:normal;text-transform:none;direction:ltr;block-progression:tb;writing-mode:lr-tb;baseline-shift:baseline;text-anchor:start;white-space:normal;clip-rule:nonzero;display:inline;overflow:visible;visibility:visible;opacity:1;isolation:auto;mix-blend-mode:normal;color-interpolation:sRGB;color-interpolation-filters:linearRGB;solid-color:#000000;solid-opacity:1;fill:#000000;fill-opacity:1;fill-rule:evenodd;stroke:none;stroke-width:1px;stroke-linecap:butt;stroke-linejoin:miter;stroke-miterlimit:4;stroke-dasharray:none;stroke-dashoffset:0;stroke-opacity:1;color-rendering:auto;image-rendering:auto;shape-rendering:auto;text-rendering:auto;enable-background:accumulate"
           d="m 45.863013,1001.6809 c -0.719188,0.3499 0.417219,3.2592 0.9919,4.1528 1.289909,2.0057 3.382913,3.8491 5.179515,5.3868 -0.822465,0.4123 -1.933682,0.8882 -2.038664,1.646 -0.0478,0.3451 0.396528,1.4563 0.9917,1.6356 0.3354,-0.748 1.79885,-2.1508 2.904922,-3.1466 -1.531203,-1.3759 -3.550384,-2.914 -5.176689,-4.7963 -1.287827,-1.4906 -2.296334,-3.2629 -2.852684,-4.8783 z"
           id="path4189"
           inkscape:connector-curvature="0"
           sodipodi:nodetypes="csccccsc" />
        <path
           style="color:#000000;font-style:normal;font-variant:normal;font-weight:normal;font-stretch:normal;font-size:medium;line-height:normal;font-family:sans-serif;text-indent:0;text-align:start;text-decoration:none;text-decoration-line:none;text-decoration-style:solid;text-decoration-color:#000000;letter-spacing:normal;word-spacing:normal;text-transform:none;direction:ltr;block-progression:tb;writing-mode:lr-tb;baseline-shift:baseline;text-anchor:start;white-space:normal;clip-rule:nonzero;display:inline;overflow:visible;visibility:visible;opacity:1;isolation:auto;mix-blend-mode:normal;color-interpolation:sRGB;color-interpolation-filters:linearRGB;solid-color:#000000;solid-opacity:1;fill:#000000;fill-opacity:1;fill-rule:evenodd;stroke:none;stroke-width:1px;stroke-linecap:butt;stroke-linejoin:miter;stroke-miterlimit:4;stroke-dasharray:none;stroke-dashoffset:0;stroke-opacity:1;color-rendering:auto;image-rendering:auto;shape-rendering:auto;text-rendering:auto;enable-background:accumulate"
           d="m 83.505754,87.275663 c -1.156197,1.024642 -2.599198,1.657683 -3.788957,2.642306 -1.763912,1.459782 -2.037796,1.330707 -4.078167,2.336321 -0.322538,0.158966 -2.56242,1.283038 -2.778183,1.408279 0.128107,0.1558 0.41899,0.906751 0.586206,0.930952 1.421085,-1.229995 3.089262,-2.129332 4.859988,-2.54274 -0.648062,0.892066 -0.951578,1.551752 -1.908893,2.137676 -0.326142,0.199615 -0.637923,0.290377 -1.041551,0.458717 0.114515,0.2088 0.162929,0.579383 0.321767,0.925704 1.822602,-0.6708 3.130314,-2.350155 4.140395,-3.906862 0.246591,-0.380039 0.564561,-0.9689 0.81836,-1.242188 0.845356,-0.910271 2.172131,-1.361873 3.058206,-2.231556 1.044181,-1.024865 1.979601,-2.511319 2.854171,-3.768712 0.254328,-0.321161 -0.265325,-0.353216 -0.60049,0.149241 -0.790236,1.184667 -1.67823,2.025241 -2.442852,2.702862 z"
           transform="translate(0,946.06299)"
           id="path4195"
           inkscape:connector-curvature="0"
           sodipodi:nodetypes="ssscccsccssscss" />
        <path
           style="color:#000000;font-style:normal;font-variant:normal;font-weight:normal;font-stretch:normal;font-size:medium;line-height:normal;font-family:sans-serif;text-indent:0;text-align:start;text-decoration:none;text-decoration-line:none;text-decoration-style:solid;text-decoration-color:#000000;letter-spacing:normal;word-spacing:normal;text-transform:none;direction:ltr;block-progression:tb;writing-mode:lr-tb;baseline-shift:baseline;text-anchor:start;white-space:normal;clip-rule:nonzero;display:inline;overflow:visible;visibility:visible;opacity:1;isolation:auto;mix-blend-mode:normal;color-interpolation:sRGB;color-interpolation-filters:linearRGB;solid-color:#000000;solid-opacity:1;fill:#000000;fill-opacity:1;fill-rule:evenodd;stroke:none;stroke-width:1px;stroke-linecap:butt;stroke-linejoin:miter;stroke-miterlimit:4;stroke-dasharray:none;stroke-dashoffset:0;stroke-opacity:1;color-rendering:auto;image-rendering:auto;shape-rendering:auto;text-rendering:auto;enable-background:accumulate"
           d="m 80.13982,1033.1824 c -2.224678,0.2482 -3.366588,1.5706 -5.338852,2.5493 -0.449978,0.2233 -2.110484,1.2415 -2.491047,1.5835 -1.688732,1.5173 -2.931757,2.1461 -5.024519,3.0064 -0.629431,0.2588 -2.346679,0.9021 -2.85824,0.8962 0.120633,0.2727 0.197073,0.656 0.317706,0.9287 2.213674,-0.5916 4.466793,-1.7815 6.424156,-3.129 0.71882,-0.4948 1.378082,-1.1253 2.139455,-1.5513 2.011399,-1.1254 2.839998,-1.8957 5.24492,-3.1888 0.28194,-0.1516 1.887406,-0.8067 1.586421,-1.095 z"
           id="path4199"
           inkscape:connector-curvature="0"
           sodipodi:nodetypes="csssccsssc" />
        <path
           style="color:#000000;font-style:normal;font-variant:normal;font-weight:normal;font-stretch:normal;font-size:medium;line-height:normal;font-family:sans-serif;text-indent:0;text-align:start;text-decoration:none;text-decoration-line:none;text-decoration-style:solid;text-decoration-color:#000000;letter-spacing:normal;word-spacing:normal;text-transform:none;direction:ltr;block-progression:tb;writing-mode:lr-tb;baseline-shift:baseline;text-anchor:start;white-space:normal;clip-rule:nonzero;display:inline;overflow:visible;visibility:visible;opacity:1;isolation:auto;mix-blend-mode:normal;color-interpolation:sRGB;color-interpolation-filters:linearRGB;solid-color:#000000;solid-opacity:1;fill:#000000;fill-opacity:1;fill-rule:evenodd;stroke:none;stroke-width:1px;stroke-linecap:butt;stroke-linejoin:miter;stroke-miterlimit:4;stroke-dasharray:none;stroke-dashoffset:0;stroke-opacity:1;color-rendering:auto;image-rendering:auto;shape-rendering:auto;text-rendering:auto;enable-background:accumulate"
           d="m 76.613281,1031.1191 c -1.033648,-0.033 -2.078872,0.1998 -2.97595,0.7382 0.16862,0.2878 0.33724,0.7081 0.50586,0.9959 0.138349,-0.3563 0.782048,-0.6948 1.422368,-0.8755 1.062712,-0.2999 2.409197,-0.2709 3.008083,0.025 -2.171034,0.6008 -3.964554,1.3514 -5.265011,2.2389 0.186849,0.276 0.174825,0.6405 0.361674,0.9165 1.341254,-0.9163 2.690074,-1.4764 4.14786,-2.1985 0.259021,-0.1283 0.88801,-0.3532 1.542111,-0.6156 0.240498,-0.097 0.452145,-0.2345 0.626588,-0.5438 -0.626479,-0.1857 -0.954684,-0.3107 -1.369024,-0.3903 -0.905957,-0.1741 -1.082239,-0.2611 -2.004559,-0.291 z"
           id="path4203"
           inkscape:connector-curvature="0"
           sodipodi:nodetypes="cccscccsscssc" />
      </g>
      <path
         sodipodi:nodetypes="sscccsssscccsssscsssscss"
         inkscape:connector-curvature="0"
         id="path4311"
         d="m 27.849609,968.17969 c -0.839559,-0.10835 -1.977423,0.12841 -2.669921,0.5957 -0.692499,0.46729 -1.309296,1.13015 -1.896485,1.88672 l -0.181641,0.23242 0.103516,0.27735 c 0.226688,0.60911 0.403715,1.0561 0.72461,1.70703 0.191854,0.38917 0.693136,1.0324 1.126953,1.45312 0.433816,0.42073 0.938036,0.81758 1.501953,1.01563 1.172704,0.41185 2.450969,0.2155 3.445312,-0.0332 0.739548,-0.18498 1.705985,-0.77382 2.470703,-1.51367 l 0.125,-0.21289 -0.08203,-0.23047 c -0.295336,-0.83583 -0.467077,-1.88083 -1.08789,-2.83203 -0.671297,-1.02855 -1.447478,-2.07047 -3.58008,-2.34571 z m -0.417968,0.75585 c 1.853161,0.23917 2.68445,1.04808 3.263671,1.93555 0.403957,0.61893 1.021676,1.68907 1.158204,2.52539 -0.367387,0.47932 -1.298711,0.95198 -1.904297,1.1211 -0.903282,0.25225 -2.269904,0.34277 -3.023438,0.0781 -0.304552,-0.10696 -1.091295,-0.45389 -1.457031,-0.80859 -0.365736,-0.3547 -1.016347,-1.4873 -1.101563,-1.66016 -0.270189,-0.54807 -0.305168,-0.63717 -0.499999,-1.10742 0.479442,-0.58609 1.261771,-1.21493 1.736328,-1.53516 0.545017,-0.36777 1.28464,-0.61897 1.828125,-0.54883 z"
         style="color:#000000;font-style:normal;font-variant:normal;font-weight:normal;font-stretch:normal;font-size:medium;line-height:normal;font-family:sans-serif;text-indent:0;text-align:start;text-decoration:none;text-decoration-line:none;text-decoration-style:solid;text-decoration-color:#000000;letter-spacing:normal;word-spacing:normal;text-transform:none;direction:ltr;block-progression:tb;writing-mode:lr-tb;baseline-shift:baseline;text-anchor:start;white-space:normal;clip-rule:nonzero;display:inline;overflow:visible;visibility:visible;opacity:1;isolation:auto;mix-blend-mode:normal;color-interpolation:sRGB;color-interpolation-filters:linearRGB;solid-color:#000000;solid-opacity:1;fill:#000000;fill-opacity:1;fill-rule:evenodd;stroke:none;stroke-width:1.0629921;stroke-linecap:butt;stroke-linejoin:miter;stroke-miterlimit:4;stroke-dasharray:none;stroke-dashoffset:0;stroke-opacity:1;color-rendering:auto;image-rendering:auto;shape-rendering:auto;text-rendering:auto;enable-background:accumulate" />
      <path
         sodipodi:nodetypes="cssssssscsccccccccssscsssssssc"
         inkscape:connector-curvature="0"
         id="path4315"
         d="m 36.919922,976.58398 c -1.890571,1.21321 -2.169561,1.8889 -2.869141,2.79883 -0.540483,0.70301 -0.852999,1.71295 -0.667969,2.625 0.185031,0.91206 0.528817,1.94219 0.980469,2.60547 0.812759,1.19359 2.511046,2.43262 3.994141,2.45899 0.824461,0.0147 2.049103,-0.83865 2.759766,-1.34961 0.710662,-0.51097 1.437336,-1.41819 1.445312,-2.26172 0.0072,-0.76075 -0.0367,-1.33123 -0.214844,-1.80469 -0.178148,-0.47346 -0.277919,-0.79947 -0.523437,-1.38086 0,0 -0.343409,-0.54691 -0.625,-0.57422 -0.239388,-0.0232 -0.615235,0.37696 -0.615235,0.37696 -0.466827,0.39725 -0.77268,0.43841 -1.021484,0.48046 -0.248804,0.0421 -0.521074,0.0747 -0.695312,-0.23047 -0.167079,-0.29265 -0.150899,-0.42221 -0.04492,-0.61914 0.105977,-0.19692 1.132208,-0.98342 1.558593,-1.21484 -1.017524,-0.7355 -2.710727,-1.8769 -3.460939,-1.91016 z m 0.144566,1.09375 c 0.478867,0.12785 1.36533,0.75311 1.384766,1.15235 -0.07405,0.3409 -0.664402,0.68142 -0.92075,1.10531 -0.315448,0.52162 -0.285838,1.12127 -0.11636,1.41813 0.335264,0.58726 1.615913,0.60317 2.203125,0.5039 0.375457,-0.0635 0.995338,-0.69248 1.341797,-0.92383 0.143735,0.30532 0.422499,1.08953 0.519531,1.31641 0.186148,0.43525 0.10713,1.40139 -0.226562,1.60742 -0.160092,0.0988 -0.459155,0.52531 -1.035156,0.93945 -0.576002,0.41415 -1.303902,0.72917 -1.806641,0.7793 -0.975808,0.0973 -2.216948,-0.90499 -2.791015,-1.74805 -0.347085,-0.50971 -0.694892,-1.33111 -0.84961,-2.09374 -0.154717,-0.76264 0.0794,-1.02989 0.21875,-1.45313 0.127034,-0.38582 0.975499,-1.96354 2.078125,-2.60352 z"
         style="color:#000000;font-style:normal;font-variant:normal;font-weight:normal;font-stretch:normal;font-size:medium;line-height:normal;font-family:sans-serif;text-indent:0;text-align:start;text-decoration:none;text-decoration-line:none;text-decoration-style:solid;text-decoration-color:#000000;letter-spacing:normal;word-spacing:normal;text-transform:none;direction:ltr;block-progression:tb;writing-mode:lr-tb;baseline-shift:baseline;text-anchor:start;white-space:normal;clip-rule:nonzero;display:inline;overflow:visible;visibility:visible;opacity:1;isolation:auto;mix-blend-mode:normal;color-interpolation:sRGB;color-interpolation-filters:linearRGB;solid-color:#000000;solid-opacity:1;fill:#000000;fill-opacity:1;fill-rule:evenodd;stroke:none;stroke-width:0.35433072;stroke-linecap:butt;stroke-linejoin:miter;stroke-miterlimit:4;stroke-dasharray:none;stroke-dashoffset:0;stroke-opacity:1;color-rendering:auto;image-rendering:auto;shape-rendering:auto;text-rendering:auto;enable-background:accumulate" />
      <path
         sodipodi:nodetypes="cccsssssccccsssssssssssssccccsssssssssssssccsssssscc"
         inkscape:connector-curvature="0"
         id="path4317"
         d="m 37.048828,972.20312 -0.134766,0.82227 c -0.228682,1.384 -0.552018,2.4123 -0.851562,2.84766 1.04938,0.91192 3.891008,2.74979 5.798828,3.54297 2.32557,0.96686 4.933919,0.87317 7.015396,2.02193 1.799372,0.99307 3.196094,2.84328 5.086167,4.05814 1.857357,1.19384 3.766221,2.37558 5.822265,3.28907 1.722735,0.7654 3.937557,1.47677 5.454389,2.17168 4.306982,1.97318 7.858235,4.24915 11.910846,6.85175 1.845101,1.20684 3.644264,2.48221 5.439453,3.76171 0.416084,-0.1306 0.832716,-0.2196 1.166015,-0.3025 0.50929,-0.1059 1.140075,-0.1743 1.410157,-0.1309 -1.43857,-0.9167 -2.478025,-1.48235 -3.753907,-2.80857 -0.420542,-0.43714 -0.978382,-1.20645 -1.414062,-1.82227 -0.43568,-0.61582 -0.954025,-1.27638 -1.652344,-1.79102 -0.93461,-0.68877 -2.206829,-0.95874 -2.886719,-1.42968 -1.165018,-0.80697 -1.45144,-2.7587 -3.017578,-3.67774 -1.287894,-0.75576 -2.704636,-0.61302 -3.642578,-1.08008 -1.475125,-0.73455 -2.557578,-2.44331 -4.271484,-3.41015 -2.26439,-1.27738 -4.785832,-1.46103 -6.871094,-2.56836 -2.007339,-1.06595 -3.729194,-2.81882 -5.627811,-4.27212 -2.101391,-1.60851 -4.394705,-3.09379 -6.99133,-3.92124 -0.823757,-0.2625 -1.637322,0.0227 -2.373047,0.0996 -0.735728,0.0769 -1.394875,0.13388 -1.943359,-0.0371 -0.291255,-0.0908 -1.106998,-0.54106 -1.767578,-0.95313 -0.66058,-0.41206 -1.214844,-0.79101 -1.214844,-0.79101 l -0.689453,-0.47071 z m 0.416476,1.20405 c 0.23018,0.15272 0.786934,0.60327 1.146292,0.82744 0.682631,0.42582 1.339379,0.79341 1.925284,0.97606 0.824449,0.25702 1.238611,0.20107 1.973346,0.12429 0.734738,-0.0768 1.749976,-0.29615 2.296415,-0.12207 2.311736,0.73666 4.500722,2.34069 6.559222,3.88547 1.952572,1.46529 3.679892,3.20378 5.884137,4.37429 2.288354,1.21518 4.705212,1.57087 6.753906,2.72657 1.450664,0.81834 2.560582,2.56614 4.337891,3.45117 1.31636,0.6555 2.770207,0.30737 3.654297,0.82617 1.203744,0.70638 1.663602,2.55054 3.138672,3.57227 0.944474,0.6542 2.144709,0.94618 2.800781,1.42969 0.500895,0.36914 0.904885,0.95147 1.349609,1.58007 0.444725,0.62861 0.935055,1.30716 1.69336,1.75977 0.768684,0.4588 2.255382,1.59424 3.181448,2.10654 -0.387055,0.083 -0.898675,0.1133 -1.406287,0.2012 -0.425533,-0.4431 -3.368305,-2.73518 -5.117456,-3.85849 -4.028441,-2.58708 -7.928714,-5.73678 -12.353018,-7.7637 -1.717468,-0.78683 -3.49578,-1.09879 -5.024165,-1.77785 -1.967946,-0.87435 -3.875178,-1.93552 -5.721929,-3.12254 -1.748615,-1.12394 -3.293572,-2.73504 -5.28125,-3.83204 -2.240413,-1.23647 -4.755696,-1.32538 -6.992187,-2.24414 -1.603566,-0.65874 -4.61848,-2.54484 -5.132813,-2.75635 0.24946,-0.50925 0.177335,-1.60763 0.334445,-2.36382 z"
         style="color:#000000;font-style:normal;font-variant:normal;font-weight:normal;font-stretch:normal;font-size:medium;line-height:normal;font-family:sans-serif;text-indent:0;text-align:start;text-decoration:none;text-decoration-line:none;text-decoration-style:solid;text-decoration-color:#000000;letter-spacing:normal;word-spacing:normal;text-transform:none;direction:ltr;block-progression:tb;writing-mode:lr-tb;baseline-shift:baseline;text-anchor:start;white-space:normal;clip-rule:nonzero;display:inline;overflow:visible;visibility:visible;opacity:1;isolation:auto;mix-blend-mode:normal;color-interpolation:sRGB;color-interpolation-filters:linearRGB;solid-color:#000000;solid-opacity:1;fill:#000000;fill-opacity:1;fill-rule:evenodd;stroke:none;stroke-width:1.0629921;stroke-linecap:butt;stroke-linejoin:miter;stroke-miterlimit:4;stroke-dasharray:none;stroke-dashoffset:0;stroke-opacity:1;color-rendering:auto;image-rendering:auto;shape-rendering:auto;text-rendering:auto;enable-background:accumulate" />
    </g>
  </g>
</svg>
